<svg width="32" height="31" viewBox="0 0 32 31" fill="none" xmlns="http://www.w3.org/2000/svg">
<path d="M26.5814 20.9182C26.5814 22.8741 24.8752 24.5412 22.6668 24.5412C20.4583 24.5412 18.7522 22.8741 18.7522 20.9182C18.7522 18.9623 20.4583 17.2953 22.6668 17.2953C24.8752 17.2953 26.5814 18.9623 26.5814 20.9182Z" stroke="#FCFCFD" stroke-width="1.50409"/>
<path d="M25.3334 23.4182L28 25.9182" stroke="#FCFCFD" stroke-width="1.50409" stroke-linecap="round"/>
<path fill-rule="evenodd" clip-rule="evenodd" d="M2.66663 10.0829C2.66663 8.18756 2.66663 7.2399 3.03548 6.51597C3.35994 5.8792 3.87765 5.36148 4.51443 5.03702C5.23835 4.66817 6.18602 4.66817 8.08135 4.66817H23.9186C25.8139 4.66817 26.7616 4.66817 27.4855 5.03702C28.1223 5.36148 28.64 5.8792 28.9644 6.51597C29.3333 7.2399 29.3333 8.18756 29.3333 10.0829V18.05C28.1738 15.6852 25.6248 14.0432 22.6667 14.0432C18.6166 14.0432 15.3333 17.1212 15.3333 20.9182C15.3333 23.6914 17.0848 26.0812 19.6074 27.1682H5.07317C4.2308 27.1682 3.80962 27.1682 3.48787 27.0042C3.20486 26.86 2.97476 26.6299 2.83056 26.3469C2.66663 26.0252 2.66663 25.604 2.66663 24.7616V10.0829ZM25.7797 27.1448C26.5341 27.1095 27.0502 27.0211 27.4855 26.7993C28.1223 26.4749 28.64 25.9571 28.9644 25.3204C29.1611 24.9343 29.2529 24.4847 29.2958 23.8617C28.5668 25.302 27.3195 26.467 25.7797 27.1448ZM8.58127 13.4182C8.58127 13.0028 8.91797 12.6661 9.33332 12.6661H17.3333C17.7487 12.6661 18.0854 13.0028 18.0854 13.4182C18.0854 13.8335 17.7487 14.1702 17.3333 14.1702H9.33332C8.91797 14.1702 8.58127 13.8335 8.58127 13.4182ZM8.58127 18.4182C8.58127 18.0028 8.91797 17.6661 9.33332 17.6661H13.3333C13.7487 17.6661 14.0854 18.0028 14.0854 18.4182C14.0854 18.8335 13.7487 19.1702 13.3333 19.1702H9.33332C8.91797 19.1702 8.58127 18.8335 8.58127 18.4182Z" fill="#FCFCFD"/>
</svg>
