<svg width="32" height="32" viewBox="0 0 32 32" fill="none" xmlns="http://www.w3.org/2000/svg">
<path fill-rule="evenodd" clip-rule="evenodd" d="M3.29301 4.60905C2.6322 5.26986 2.6322 6.33341 2.6322 8.46051V23.1254C2.6322 25.2525 2.6322 26.3161 3.29301 26.9769C3.95382 27.6377 5.01737 27.6377 7.14447 27.6377H24.4415C26.5686 27.6377 27.6322 27.6377 28.293 26.9769C28.9538 26.3161 28.9538 25.2525 28.9538 23.1254V8.46051C28.9538 6.33341 28.9538 5.26986 28.293 4.60905C27.6322 3.94824 26.5686 3.94824 24.4415 3.94824H7.14447C5.01737 3.94824 3.95382 3.94824 3.29301 4.60905ZM21.0574 11.0927C21.4727 11.0927 21.8094 11.4294 21.8094 11.8447V22.3733C21.8094 22.7887 21.4727 23.1254 21.0574 23.1254C20.642 23.1254 20.3053 22.7887 20.3053 22.3733V11.8447C20.3053 11.4294 20.642 11.0927 21.0574 11.0927ZM11.2808 14.4769C11.2808 14.0615 10.9441 13.7248 10.5288 13.7248C10.1134 13.7248 9.77671 14.0615 9.77671 14.4769V22.3733C9.77671 22.7887 10.1134 23.1254 10.5288 23.1254C10.9441 23.1254 11.2808 22.7887 11.2808 22.3733V14.4769ZM16.5451 17.109C16.5451 16.6937 16.2084 16.357 15.7931 16.357C15.3777 16.357 15.041 16.6937 15.041 17.109V22.3733C15.041 22.7887 15.3777 23.1254 15.7931 23.1254C16.2084 23.1254 16.5451 22.7887 16.5451 22.3733V17.109Z" fill="#FCFCFD"/>
</svg>
