<svg width="44" height="43" viewBox="0 0 44 43" fill="none" xmlns="http://www.w3.org/2000/svg">
<path fill-rule="evenodd" clip-rule="evenodd" d="M25.4366 5.9914V5.99142V5.99143C25.5829 7.45457 25.6561 8.18614 25.9623 8.58752C26.3507 9.09664 26.9823 9.35828 27.617 9.27292C28.1173 9.20562 28.6864 8.74005 29.8244 7.80891C30.4257 7.31698 30.7263 7.07102 31.0498 6.96769C31.4606 6.83645 31.9051 6.85862 32.3008 7.03008C32.6124 7.16509 32.887 7.43974 33.4363 7.98904L33.4363 7.98906L35.0288 9.58154C35.5781 10.1308 35.8528 10.4055 35.9878 10.7171C36.1593 11.1128 36.1814 11.5573 36.0502 11.9681C35.9469 12.2916 35.7009 12.5922 35.209 13.1934L35.209 13.1935C34.2778 14.3315 33.8123 14.9005 33.745 15.4009C33.6596 16.0355 33.9212 16.6672 34.4304 17.0556C34.8318 17.3618 35.5633 17.435 37.0264 17.5813C37.7994 17.6586 38.1859 17.6972 38.4876 17.8529C38.871 18.0506 39.1696 18.3805 39.3282 18.7816C39.453 19.0974 39.453 19.4858 39.453 20.2626V22.515C39.453 23.2916 39.453 23.6799 39.3282 23.9957C39.1696 24.3968 38.8709 24.7269 38.4875 24.9246C38.1858 25.0802 37.7994 25.1189 37.0265 25.1961C35.5638 25.3424 34.8325 25.4155 34.4312 25.7215C33.9218 26.11 33.66 26.742 33.7456 27.3768C33.8129 27.877 34.2783 28.4458 35.2091 29.5834C35.7008 30.1844 35.9467 30.4849 36.05 30.8083C36.1814 31.2192 36.1592 31.6639 35.9876 32.0598C35.8526 32.3712 35.5781 32.6458 35.029 33.1949L33.4362 34.7876C32.887 35.3369 32.6123 35.6115 32.3008 35.7465C31.905 35.918 31.4605 35.9402 31.0497 35.8089C30.7262 35.7056 30.4256 35.4596 29.8244 34.9677C28.6864 34.0367 28.1174 33.5711 27.6171 33.5038C26.9824 33.4184 26.3507 33.6801 25.9623 34.1893C25.6561 34.5906 25.583 35.3223 25.4366 36.7856C25.3593 37.5589 25.3206 37.9456 25.1649 38.2474C24.9672 38.6306 24.6374 38.9291 24.2364 39.0877C23.9206 39.2126 23.532 39.2126 22.755 39.2126H20.5031C19.7263 39.2126 19.3378 39.2126 19.022 39.0878C18.621 38.9292 18.291 38.6306 18.0933 38.2473C17.9377 37.9455 17.899 37.559 17.8217 36.786C17.6754 35.3229 17.6022 34.5913 17.296 34.1899C16.9076 33.6808 16.276 33.4192 15.6413 33.5045C15.141 33.5718 14.572 34.0374 13.4339 34.9685L13.4339 34.9685L13.4339 34.9685C12.8327 35.4604 12.532 35.7064 12.2086 35.8097C11.7977 35.941 11.3533 35.9188 10.9575 35.7473C10.646 35.6123 10.3713 35.3377 9.822 34.7884L8.22951 33.1959C7.6802 32.6466 7.40555 32.3719 7.27054 32.0603C7.09907 31.6646 7.0769 31.2201 7.20814 30.8093C7.31148 30.4858 7.55744 30.1852 8.04936 29.584C8.9805 28.4459 9.44607 27.8769 9.51337 27.3765C9.59873 26.7419 9.33709 26.1102 8.82796 25.7218C8.42658 25.4156 7.695 25.3425 6.23184 25.1962C5.45882 25.1189 5.07231 25.0802 4.77051 24.9245C4.38722 24.7268 4.08862 24.3969 3.93004 23.9958C3.80518 23.68 3.80518 23.2916 3.80518 22.5147V20.2628C3.80518 19.4858 3.80518 19.0973 3.93009 18.7815C4.08866 18.3805 4.3872 18.0506 4.77038 17.8529C5.07224 17.6972 5.45883 17.6586 6.232 17.5812H6.23201C7.6955 17.4349 8.42725 17.3617 8.82869 17.0554C9.33763 16.667 9.59919 16.0355 9.51394 15.401C9.44669 14.9006 8.98097 14.3314 8.04954 13.1929C7.5574 12.5914 7.31133 12.2907 7.208 11.9671C7.07687 11.5564 7.09903 11.1121 7.27038 10.7165C7.40539 10.4048 7.68015 10.13 8.22966 9.58052L9.8219 7.98829C10.3712 7.43895 10.6459 7.16427 10.9575 7.02927C11.3532 6.85782 11.7977 6.83565 12.2085 6.96687C12.532 7.07021 12.8327 7.31622 13.434 7.80826C14.572 8.73929 15.1409 9.20481 15.6411 9.27217C16.2759 9.35766 16.9078 9.09593 17.2963 8.58659C17.6023 8.18527 17.6755 7.45391 17.8217 5.99118C17.899 5.21842 17.9376 4.83203 18.0932 4.53031C18.2909 4.14687 18.621 3.84816 19.0222 3.68958C19.3379 3.56479 19.7262 3.56479 20.5029 3.56479H22.7552C23.532 3.56479 23.9205 3.56479 24.2363 3.68965C24.6373 3.84822 24.9673 4.14684 25.165 4.53014C25.3206 4.83193 25.3593 5.21842 25.4366 5.9914ZM21.6292 28.5183C25.5668 28.5183 28.7588 25.3263 28.7588 21.3887C28.7588 17.4512 25.5668 14.2592 21.6292 14.2592C17.6917 14.2592 14.4997 17.4512 14.4997 21.3887C14.4997 25.3263 17.6917 28.5183 21.6292 28.5183Z" fill="#7065D2"/>
</svg>
