<svg width="31" height="31" viewBox="0 0 31 31" fill="none" xmlns="http://www.w3.org/2000/svg">
<path fill-rule="evenodd" clip-rule="evenodd" d="M18.0623 3.28289C18.1751 3.5016 18.2031 3.78168 18.2591 4.34184C18.3651 5.40212 18.4181 5.93226 18.64 6.22313C18.9215 6.5921 19.3793 6.78172 19.8392 6.71985C20.2018 6.67107 20.6141 6.33369 21.4388 5.65894C21.8745 5.30246 22.0924 5.12423 22.3268 5.04934C22.6245 4.95423 22.9466 4.97029 23.2334 5.09456C23.4592 5.1924 23.6582 5.39143 24.0563 5.78949L25.2104 6.94355C25.6084 7.34162 25.8075 7.54066 25.9053 7.76645C26.0296 8.05323 26.0456 8.37534 25.9505 8.67306C25.8756 8.90747 25.6974 9.12532 25.3409 9.56103L25.3409 9.56104C24.6661 10.3858 24.3287 10.7981 24.28 11.1607C24.2181 11.6206 24.4077 12.0784 24.7767 12.3598C25.0675 12.5817 25.5977 12.6348 26.658 12.7408C27.2182 12.7968 27.4983 12.8248 27.717 12.9376C27.9948 13.0809 28.2112 13.32 28.3261 13.6106C28.4166 13.8395 28.4166 14.121 28.4166 14.684V16.3162C28.4166 16.879 28.4166 17.1604 28.3261 17.3892C28.2112 17.6799 27.9948 17.9191 27.7169 18.0624C27.4982 18.1751 27.2182 18.2031 26.6582 18.2592L26.6581 18.2592C25.5982 18.3652 25.0682 18.4182 24.7774 18.6399C24.4082 18.9214 24.2185 19.3794 24.2805 19.8395C24.3293 20.2019 24.6666 20.6141 25.3411 21.4385C25.6975 21.8741 25.8756 22.0918 25.9505 22.3262C26.0457 22.624 26.0296 22.9462 25.9053 23.2331C25.8075 23.4588 25.6085 23.6578 25.2106 24.0557L24.0564 25.2099C23.6583 25.608 23.4593 25.807 23.2335 25.9048C22.9467 26.0291 22.6246 26.0452 22.3268 25.95C22.0924 25.8752 21.8746 25.6969 21.4389 25.3404C20.6142 24.6657 20.2018 24.3283 19.8393 24.2795C19.3793 24.2177 18.9216 24.4073 18.6401 24.7763C18.4182 25.0671 18.3652 25.5973 18.2591 26.6578C18.2031 27.2182 18.1751 27.4984 18.0622 27.7172C17.919 27.9949 17.6799 28.2112 17.3894 28.3261C17.1605 28.4166 16.8789 28.4166 16.3158 28.4166H14.6839C14.1209 28.4166 13.8394 28.4166 13.6106 28.3262C13.32 28.2112 13.0808 27.9948 12.9376 27.7171C12.8248 27.4984 12.7967 27.2183 12.7407 26.6581C12.6347 25.5978 12.5817 25.0676 12.3598 24.7767C12.0783 24.4078 11.6206 24.2182 11.1607 24.28C10.7981 24.3288 10.3857 24.6662 9.56093 25.341C9.12521 25.6975 8.90734 25.8758 8.67292 25.9506C8.37521 26.0457 8.05312 26.0297 7.76635 25.9054C7.54054 25.8076 7.3415 25.6085 6.94341 25.2105L5.78939 24.0564C5.39131 23.6584 5.19227 23.4593 5.09443 23.2335C4.97017 22.9467 4.95411 22.6246 5.04922 22.3269C5.1241 22.0925 5.30235 21.8746 5.65884 21.4389C6.33362 20.6142 6.671 20.2018 6.71978 19.8393C6.78165 19.3793 6.59203 18.9216 6.22307 18.6401C5.9322 18.4182 5.40206 18.3652 4.34177 18.2592C3.78161 18.2031 3.50154 18.1751 3.28283 18.0623C3.00506 17.9191 2.78865 17.6799 2.67373 17.3893C2.58325 17.1604 2.58325 16.879 2.58325 16.316V14.6841C2.58325 14.121 2.58325 13.8394 2.67378 13.6105C2.78869 13.32 3.00503 13.0809 3.28272 12.9377C3.50147 12.8248 3.78162 12.7968 4.34192 12.7408H4.34193H4.34193C5.4025 12.6347 5.93279 12.5817 6.22371 12.3597C6.59252 12.0783 6.78207 11.6206 6.72029 11.1608C6.67155 10.7981 6.33406 10.3857 5.65907 9.56067L5.65907 9.56066C5.30242 9.12476 5.1241 8.90681 5.04922 8.6723C4.95419 8.37468 4.97025 8.05272 5.09442 7.76604C5.19226 7.54014 5.39138 7.34103 5.7896 6.9428L6.94347 5.78893C7.34156 5.39084 7.5406 5.1918 7.76641 5.09396C8.05318 4.96971 8.37527 4.95364 8.67298 5.04875C8.9074 5.12363 9.1253 5.30191 9.56108 5.65846L9.56109 5.65846C10.3857 6.33316 10.798 6.6705 11.1605 6.71932C11.6205 6.78127 12.0785 6.5916 12.36 6.22248C12.5817 5.93166 12.6348 5.40166 12.7408 4.34167V4.34167C12.7968 3.78167 12.8247 3.50167 12.9375 3.28301C13.0808 3.00514 13.32 2.78866 13.6107 2.67374C13.8395 2.58331 14.1209 2.58331 14.6837 2.58331H16.316C16.8789 2.58331 17.1604 2.58331 17.3892 2.67379C17.6799 2.78871 17.919 3.00512 18.0623 3.28289ZM15.5 20.6667C18.3535 20.6667 20.6667 18.3535 20.6667 15.5C20.6667 12.6465 18.3535 10.3333 15.5 10.3333C12.6465 10.3333 10.3333 12.6465 10.3333 15.5C10.3333 18.3535 12.6465 20.6667 15.5 20.6667Z" fill="#7065D2"/>
</svg>
