<svg width="34" height="31" viewBox="0 0 34 31" fill="none" xmlns="http://www.w3.org/2000/svg">
<path fill-rule="evenodd" clip-rule="evenodd" d="M1.2034 0.883541C0.359863 1.72707 0.359863 3.08472 0.359863 5.80001V24.52C0.359863 27.2353 0.359863 28.593 1.2034 29.4365C2.04693 30.28 3.40457 30.28 6.11986 30.28H28.1999C30.9152 30.28 32.2728 30.28 33.1163 29.4365C33.9599 28.593 33.9599 27.2353 33.9599 24.52V5.80001C33.9599 3.08472 33.9599 1.72707 33.1163 0.883541C32.2728 0.0400085 30.9152 0.0400085 28.1999 0.0400085H6.11987C3.40457 0.0400085 2.04693 0.0400085 1.2034 0.883541ZM23.8803 9.16002C24.4105 9.16002 24.8403 9.58983 24.8403 10.12V23.56C24.8403 24.0902 24.4105 24.52 23.8803 24.52C23.3501 24.52 22.9203 24.0902 22.9203 23.56V10.12C22.9203 9.58983 23.3501 9.16002 23.8803 9.16002ZM11.4 13.48C11.4 12.9498 10.9702 12.52 10.44 12.52C9.90984 12.52 9.48003 12.9498 9.48003 13.48V23.56C9.48003 24.0902 9.90984 24.52 10.44 24.52C10.9702 24.52 11.4 24.0902 11.4 23.56V13.48ZM18.1201 16.84C18.1201 16.3098 17.6903 15.88 17.1601 15.88C16.63 15.88 16.2001 16.3098 16.2001 16.84V23.56C16.2001 24.0902 16.63 24.52 17.1601 24.52C17.6903 24.52 18.1201 24.0902 18.1201 23.56V16.84Z" fill="#7065D2"/>
</svg>
