<svg width="29" height="36" viewBox="0 0 29 36" fill="none" xmlns="http://www.w3.org/2000/svg">
<path fill-rule="evenodd" clip-rule="evenodd" d="M15.0291 0V10.4896L15.0291 10.543C15.029 10.9592 15.0289 11.3637 15.0737 11.6973C15.1243 12.0734 15.2475 12.5026 15.604 12.8591C15.9605 13.2156 16.3897 13.3388 16.7658 13.3894C17.0994 13.4342 17.5039 13.4341 17.9201 13.434L17.9735 13.434H28.463V24.9051C28.463 29.9367 28.463 32.4525 26.8999 34.0156C25.3368 35.5787 22.821 35.5787 17.7894 35.5787H10.6736C5.64203 35.5787 3.12623 35.5787 1.56312 34.0156C0 32.4525 0 29.9367 0 24.9051V10.6736C0 5.64203 0 3.12623 1.56312 1.56312C3.12623 0 5.64203 0 10.6736 0H15.0291ZM16.992 0.000190414V10.4896C16.992 10.98 16.9941 11.2491 17.0192 11.4358L17.0202 11.4429L17.0273 11.4439C17.214 11.469 17.4831 11.4711 17.9735 11.4711H28.4628C28.4608 10.2591 28.4389 9.60258 28.1922 9.00686C27.9213 8.35304 27.4072 7.83888 26.3789 6.81057L26.3789 6.81056L26.3788 6.81053L21.6525 2.08415C20.6241 1.05582 20.11 0.541654 19.4561 0.270827C18.8604 0.0240821 18.2039 0.00214139 16.992 0.000190414ZM7.91323 19.5683C7.91323 19.0263 8.35265 18.5868 8.89471 18.5868H19.5683C20.1104 18.5868 20.5498 19.0263 20.5498 19.5683C20.5498 20.1104 20.1104 20.5498 19.5683 20.5498L8.89471 20.5498C8.35265 20.5498 7.91323 20.1104 7.91323 19.5683ZM8.89471 25.7026C8.35265 25.7026 7.91323 26.142 7.91323 26.684C7.91323 27.2261 8.35265 27.6655 8.89471 27.6655L16.0105 27.6655C16.5525 27.6655 16.9919 27.2261 16.9919 26.684C16.9919 26.142 16.5525 25.7026 16.0105 25.7026H8.89471Z" fill="#7065D2"/>
</svg>
