<svg width="34" height="31" viewBox="0 0 34 31" fill="none" xmlns="http://www.w3.org/2000/svg">
<path fill-rule="evenodd" clip-rule="evenodd" d="M0.3479 7.25465C0.3479 4.72311 0.3479 3.45735 0.84057 2.49043C1.27393 1.6399 1.96543 0.948404 2.81596 0.515039C3.78288 0.0223694 5.04865 0.0223694 7.58018 0.0223694H26.5984C29.1299 0.0223694 30.3957 0.0223694 31.3626 0.515039C32.2132 0.948404 32.9047 1.6399 33.338 2.49043C33.8307 3.45735 33.8307 4.72311 33.8307 7.25465V17.9445C32.3747 14.7774 29.1743 12.5784 25.4602 12.5784C20.3749 12.5784 16.2524 16.7009 16.2524 21.7862C16.2524 25.5004 18.4516 28.701 21.6189 30.1569H3.56225C2.43712 30.1569 1.87456 30.1569 1.44482 29.9379C1.0668 29.7453 0.759471 29.438 0.566865 29.06C0.3479 28.6302 0.3479 28.0677 0.3479 26.9425V7.25465ZM29.4077 30.1072C30.2433 30.0502 30.8457 29.9276 31.3626 29.6642C32.2132 29.2308 32.9047 28.5393 33.338 27.6888C33.6014 27.1719 33.724 26.5696 33.781 25.7341C32.8715 27.6477 31.3213 29.1978 29.4077 30.1072ZM7.71425 11.7414C7.71425 11.1866 8.16397 10.7369 8.71874 10.7369H18.7636C19.3183 10.7369 19.7681 11.1866 19.7681 11.7414C19.7681 12.2961 19.3183 12.7459 18.7636 12.7459H8.71874C8.16397 12.7459 7.71425 12.2961 7.71425 11.7414ZM7.71425 18.4379C7.71425 17.8832 8.16397 17.4334 8.71874 17.4334H13.7412C14.2959 17.4334 14.7456 17.8832 14.7456 18.4379C14.7456 18.9927 14.2959 19.4424 13.7412 19.4424H8.71874C8.16397 19.4424 7.71425 18.9927 7.71425 18.4379Z" fill="#7065D2"/>
</svg>
