<svg width="26" height="24" viewBox="0 0 26 24" fill="none" xmlns="http://www.w3.org/2000/svg">
<path fill-rule="evenodd" clip-rule="evenodd" d="M0.506592 6.3385C0.506592 4.44316 0.506592 3.4955 0.875448 2.77157C1.1999 2.1348 1.71762 1.61708 2.3544 1.29262C3.07832 0.923767 4.02599 0.923767 5.92132 0.923767H20.16C22.0554 0.923767 23.003 0.923767 23.727 1.29262C24.3637 1.61708 24.8815 2.1348 25.2059 2.77157C25.5748 3.4955 25.5748 4.44316 25.5748 6.33849V14.3419C24.4847 11.9707 22.0886 10.3243 19.3078 10.3243C15.5005 10.3243 12.4141 13.4108 12.4141 17.2181C12.4141 19.9989 14.0606 22.3951 16.4319 23.4851H2.91314C2.07077 23.4851 1.64958 23.4851 1.32784 23.3212C1.04483 23.177 0.81473 22.9469 0.670528 22.6639C0.506592 22.3421 0.506592 21.9209 0.506592 21.0786V6.3385ZM22.2633 23.448C22.8889 23.4053 23.3399 23.3135 23.727 23.1163C24.3637 22.7918 24.8815 22.2741 25.2059 21.6373C25.4031 21.2503 25.4949 20.7993 25.5376 20.1738C24.8566 21.6065 23.696 22.7671 22.2633 23.448ZM6.02171 9.69764C6.02171 9.2823 6.35841 8.9456 6.77376 8.9456H14.2942C14.7096 8.9456 15.0463 9.2823 15.0463 9.69764C15.0463 10.113 14.7096 10.4497 14.2942 10.4497H6.77376C6.35841 10.4497 6.02171 10.113 6.02171 9.69764ZM6.02171 14.7113C6.02171 14.2959 6.35841 13.9592 6.77376 13.9592H10.534C10.9493 13.9592 11.286 14.2959 11.286 14.7113C11.286 15.1266 10.9493 15.4633 10.534 15.4633H6.77376C6.35841 15.4633 6.02171 15.1266 6.02171 14.7113Z" fill="#7065D2"/>
</svg>
