<svg width="32" height="30" viewBox="0 0 32 30" fill="none" xmlns="http://www.w3.org/2000/svg">
<path d="M26.5813 20C26.5813 21.9559 24.8751 23.623 22.6667 23.623C20.4582 23.623 18.752 21.9559 18.752 20C18.752 18.0441 20.4582 16.377 22.6667 16.377C24.8751 16.377 26.5813 18.0441 26.5813 20Z" stroke="#FCFCFD" stroke-width="1.50409"/>
<path d="M25.3335 22.5L28.0002 25" stroke="#FCFCFD" stroke-width="1.50409" stroke-linecap="round"/>
<path fill-rule="evenodd" clip-rule="evenodd" d="M2.6665 9.16467C2.6665 7.26933 2.6665 6.32167 3.03536 5.59775C3.35982 4.96097 3.87753 4.44325 4.51431 4.1188C5.23823 3.74994 6.1859 3.74994 8.08123 3.74994H23.9184C25.8138 3.74994 26.7614 3.74994 27.4854 4.1188C28.1221 4.44325 28.6399 4.96097 28.9643 5.59775C29.3332 6.32167 29.3332 7.26933 29.3332 9.16466V17.1317C28.1737 14.7669 25.6246 13.1249 22.6665 13.1249C18.6165 13.1249 15.3332 16.203 15.3332 19.9999C15.3332 22.7732 17.0847 25.1629 19.6072 26.2499H5.07305C4.23068 26.2499 3.80949 26.2499 3.48775 26.086C3.20474 25.9418 2.97464 25.7117 2.83044 25.4287C2.6665 25.1069 2.6665 24.6858 2.6665 23.8434V9.16467ZM25.7795 26.2266C26.5339 26.1913 27.0501 26.1029 27.4854 25.8811C28.1221 25.5566 28.6399 25.0389 28.9643 24.4021C29.161 24.0161 29.2528 23.5665 29.2957 22.9434C28.5667 24.3838 27.3193 25.5488 25.7795 26.2266ZM8.58115 12.4999C8.58115 12.0846 8.91785 11.7479 9.33319 11.7479H17.3332C17.7485 11.7479 18.0852 12.0846 18.0852 12.4999C18.0852 12.9153 17.7485 13.252 17.3332 13.252H9.33319C8.91785 13.252 8.58115 12.9153 8.58115 12.4999ZM8.58115 17.4999C8.58115 17.0846 8.91785 16.7479 9.33319 16.7479H13.3332C13.7485 16.7479 14.0852 17.0846 14.0852 17.4999C14.0852 17.9153 13.7485 18.252 13.3332 18.252H9.33319C8.91785 18.252 8.58115 17.9153 8.58115 17.4999Z" fill="#FCFCFD"/>
</svg>
