<svg width="22" height="28" viewBox="0 0 22 28" fill="none" xmlns="http://www.w3.org/2000/svg">
<path fill-rule="evenodd" clip-rule="evenodd" d="M11.5158 0.523315V8.5608L11.5158 8.60171C11.5157 8.92063 11.5157 9.23057 11.5501 9.4862C11.5888 9.77439 11.6832 10.1032 11.9564 10.3764C12.2295 10.6495 12.5584 10.7439 12.8465 10.7827C13.1022 10.8171 13.4121 10.817 13.731 10.8169L13.7719 10.8169H21.8093V19.6065C21.8093 23.4618 21.8093 25.3895 20.6116 26.5872C19.4139 27.785 17.4862 27.785 13.6308 27.785H8.17849C4.32311 27.785 2.39542 27.785 1.19771 26.5872C0 25.3895 0 23.4618 0 19.6065V8.70181C0 4.84643 0 2.91874 1.19771 1.72103C2.39542 0.523315 4.32311 0.523315 8.17849 0.523315H11.5158ZM13.0199 0.523461V8.5608C13.0199 8.93657 13.0215 9.14275 13.0407 9.28578L13.0415 9.29126L13.047 9.29201C13.19 9.31124 13.3962 9.31284 13.7719 9.31284H21.8092C21.8077 8.38422 21.7909 7.88114 21.6018 7.42468C21.3943 6.9237 21.0003 6.52973 20.2124 5.7418L20.2124 5.74179L20.2124 5.74178L16.5909 2.12027C15.8029 1.33232 15.4089 0.938349 14.9079 0.730832C14.4515 0.54177 13.9485 0.524957 13.0199 0.523461ZM6.06337 15.5172C6.06337 15.1019 6.40007 14.7652 6.81542 14.7652L14.9939 14.7652C15.4093 14.7652 15.746 15.1019 15.746 15.5172C15.746 15.9326 15.4093 16.2693 14.9939 16.2693H6.81542C6.40007 16.2693 6.06337 15.9326 6.06337 15.5172ZM6.81542 20.2175C6.40007 20.2175 6.06337 20.5542 6.06337 20.9695C6.06337 21.3849 6.40007 21.7216 6.81542 21.7216L12.2677 21.7216C12.6831 21.7216 13.0198 21.3849 13.0198 20.9695C13.0198 20.5542 12.6831 20.2175 12.2677 20.2175H6.81542Z" fill="#7065D2"/>
</svg>
