<svg width="37" height="37" viewBox="0 0 37 37" fill="none" xmlns="http://www.w3.org/2000/svg">
<path fill-rule="evenodd" clip-rule="evenodd" d="M22.4365 2.9914V2.99142V2.99143C22.5828 4.45457 22.6559 5.18614 22.9622 5.58752C23.3506 6.09664 23.9822 6.35828 24.6169 6.27292C25.1172 6.20562 25.6862 5.74005 26.8243 4.80891C27.4255 4.31698 27.7262 4.07102 28.0496 3.96769C28.4605 3.83645 28.9049 3.85862 29.3007 4.03008C29.6122 4.16509 29.8869 4.43974 30.4362 4.98904L30.4362 4.98906L32.0287 6.58154C32.578 7.13085 32.8527 7.4055 32.9877 7.71708C33.1591 8.11281 33.1813 8.55729 33.0501 8.96812C32.9467 9.29159 32.7008 9.59221 32.2088 10.1934L32.2088 10.1935C31.2777 11.3315 30.8121 11.9005 30.7448 12.4009C30.6595 13.0355 30.9211 13.6672 31.4303 14.0556C31.8316 14.3618 32.5632 14.435 34.0263 14.5813C34.7993 14.6586 35.1857 14.6972 35.4875 14.8529C35.8708 15.0506 36.1695 15.3805 36.328 15.7816C36.4529 16.0974 36.4529 16.4858 36.4529 17.2626V19.515C36.4529 20.2916 36.4529 20.6799 36.3281 20.9957C36.1695 21.3968 35.8708 21.7269 35.4874 21.9246C35.1857 22.0802 34.7993 22.1189 34.0264 22.1961L34.0264 22.1961C32.5637 22.3424 31.8324 22.4155 31.4311 22.7215C30.9217 23.11 30.6599 23.742 30.7454 24.3768C30.8128 24.877 31.2782 25.4458 32.209 26.5834L32.209 26.5834C32.7007 27.1844 32.9466 27.4849 33.0499 27.8083C33.1813 28.2192 33.1591 28.6639 32.9875 29.0598C32.8525 29.3712 32.578 29.6457 32.0289 30.1948L32.0289 30.1949L30.4361 31.7876C29.8868 32.3369 29.6122 32.6115 29.3006 32.7465C28.9049 32.918 28.4604 32.9402 28.0495 32.8089C27.7261 32.7056 27.4255 32.4596 26.8243 31.9677C25.6863 31.0367 25.1173 30.5711 24.617 30.5038C23.9823 30.4184 23.3506 30.6801 22.9622 31.1892C22.656 31.5906 22.5828 32.3223 22.4365 33.7855L22.4365 33.7856C22.3592 34.5589 22.3205 34.9456 22.1648 35.2474C21.9671 35.6306 21.6372 35.9291 21.2363 36.0877C20.9204 36.2126 20.5319 36.2126 19.7549 36.2126H17.503C16.7261 36.2126 16.3377 36.2126 16.0219 36.0878C15.6209 35.9292 15.2909 35.6306 15.0932 35.2473C14.9375 34.9455 14.8989 34.559 14.8216 33.786C14.6753 32.3229 14.6021 31.5913 14.2959 31.1899C13.9075 30.6808 13.2758 30.4192 12.6412 30.5045C12.1409 30.5718 11.5718 31.0374 10.4338 31.9685L10.4338 31.9685L10.4338 31.9685C9.83253 32.4604 9.53192 32.7064 9.20846 32.8097C8.79763 32.941 8.35314 32.9188 7.95741 32.7473C7.64583 32.6123 7.37118 32.3377 6.82187 31.7884L5.22939 30.1959C4.68008 29.6466 4.40542 29.3719 4.27042 29.0603C4.09895 28.6646 4.07678 28.2201 4.20802 27.8093C4.31135 27.4858 4.55732 27.1852 5.04924 26.584C5.98038 25.4459 6.44594 24.8769 6.51324 24.3765C6.59861 23.7419 6.33696 23.1102 5.82784 22.7218C5.42646 22.4156 4.69488 22.3425 3.23172 22.1962C2.4587 22.1189 2.07219 22.0802 1.77039 21.9245C1.3871 21.7268 1.08849 21.3969 0.929918 20.9958C0.805054 20.68 0.805054 20.2916 0.805054 19.5147V17.2629C0.805054 16.4858 0.805054 16.0973 0.929971 15.7814C1.08854 15.3805 1.38708 15.0506 1.77026 14.8529C2.07212 14.6972 2.4587 14.6586 3.23188 14.5812C4.69538 14.4349 5.42713 14.3617 5.82858 14.0554C6.33751 13.667 6.59907 13.0355 6.51382 12.401C6.44657 11.9006 5.98086 11.3314 5.04943 10.193L5.04942 10.1929L5.04942 10.1929C4.55728 9.59143 4.31121 9.29068 4.20788 8.96707C4.07675 8.55639 4.09891 8.1121 4.27025 7.71651C4.40527 7.40479 4.68003 7.13003 5.22954 6.58051L5.22955 6.58051L6.82177 4.98828C7.37112 4.43894 7.64579 4.16427 7.95739 4.02926C8.3531 3.85781 8.79755 3.83564 9.20835 3.96687C9.53184 4.0702 9.83253 4.31622 10.4339 4.80825L10.4339 4.80826C11.5718 5.73929 12.1408 6.20481 12.641 6.27217C13.2758 6.35765 13.9077 6.09592 14.2961 5.58658C14.6022 5.18527 14.6753 4.45391 14.8216 2.99118C14.8989 2.21842 14.9375 1.83203 15.0931 1.53031C15.2908 1.14687 15.6209 0.848158 16.0221 0.689577C16.3378 0.564789 16.7261 0.564789 17.5027 0.564789H19.7551C20.5319 0.564789 20.9203 0.564789 21.2361 0.689647C21.6372 0.848223 21.9672 1.14684 22.1649 1.53014C22.3205 1.83193 22.3592 2.21842 22.4365 2.9914ZM18.6291 25.5183C22.5666 25.5183 25.7587 22.3263 25.7587 18.3887C25.7587 14.4512 22.5666 11.2592 18.6291 11.2592C14.6915 11.2592 11.4995 14.4512 11.4995 18.3887C11.4995 22.3263 14.6915 25.5183 18.6291 25.5183Z" fill="#7065D2"/>
</svg>
