<svg width="27" height="25" viewBox="0 0 27 25" fill="none" xmlns="http://www.w3.org/2000/svg">
<path fill-rule="evenodd" clip-rule="evenodd" d="M1.29289 1.19493C0.63208 1.85573 0.63208 2.91928 0.63208 5.04639V19.7113C0.63208 21.8384 0.63208 22.9019 1.29289 23.5627C1.95369 24.2235 3.01725 24.2235 5.14435 24.2235H22.4414C24.5685 24.2235 25.632 24.2235 26.2929 23.5627C26.9537 22.9019 26.9537 21.8384 26.9537 19.7113V5.04639C26.9537 2.91928 26.9537 1.85573 26.2929 1.19493C25.632 0.534119 24.5685 0.534119 22.4414 0.534119H5.14435C3.01725 0.534119 1.95369 0.534119 1.29289 1.19493ZM19.0573 7.67854C19.4726 7.67854 19.8093 8.01525 19.8093 8.43059V18.9592C19.8093 19.3746 19.4726 19.7113 19.0573 19.7113C18.6419 19.7113 18.3052 19.3746 18.3052 18.9592V8.43059C18.3052 8.01525 18.6419 7.67854 19.0573 7.67854ZM9.28068 11.0627C9.28068 10.6474 8.94398 10.3107 8.52863 10.3107C8.11329 10.3107 7.77659 10.6474 7.77659 11.0627V18.9592C7.77659 19.3746 8.11329 19.7113 8.52863 19.7113C8.94398 19.7113 9.28068 19.3746 9.28068 18.9592V11.0627ZM14.545 13.6949C14.545 13.2796 14.2083 12.9429 13.7929 12.9429C13.3776 12.9429 13.0409 13.2796 13.0409 13.6949V18.9592C13.0409 19.3746 13.3776 19.7113 13.7929 19.7113C14.2083 19.7113 14.545 19.3746 14.545 18.9592V13.6949Z" fill="#FCFCFD"/>
</svg>
