<svg width="31" height="29" viewBox="0 0 31 29" fill="none" xmlns="http://www.w3.org/2000/svg">
<path fill-rule="evenodd" clip-rule="evenodd" d="M0.0900879 7.30999C0.0900879 4.97361 0.0900879 3.80542 0.544776 2.91304C0.944732 2.12809 1.58292 1.4899 2.36788 1.08994C3.26025 0.635254 4.42844 0.635254 6.76481 0.635254H24.3169C26.6532 0.635254 27.8214 0.635254 28.7138 1.08994C29.4988 1.4899 30.137 2.12809 30.5369 2.91304C30.9916 3.80542 30.9916 4.97361 30.9916 7.30998V17.1758C29.6479 14.2528 26.6941 12.2233 23.2664 12.2233C18.5731 12.2233 14.7685 16.028 14.7685 20.7212C14.7685 24.1491 16.7981 27.103 19.7212 28.4466H3.05664C2.01825 28.4466 1.49905 28.4466 1.10244 28.2445C0.753569 28.0668 0.46993 27.7831 0.292172 27.4343C0.0900879 27.0376 0.0900879 26.5185 0.0900879 25.4801V7.30999ZM26.9095 28.4008C27.6807 28.3482 28.2367 28.235 28.7138 27.9919C29.4988 27.592 30.137 26.9538 30.5369 26.1688C30.78 25.6917 30.8931 25.1358 30.9458 24.3647C30.1064 26.1308 28.6757 27.5615 26.9095 28.4008ZM6.88857 11.4508C6.88857 10.9388 7.30362 10.5238 7.81562 10.5238H17.0861C17.5981 10.5238 18.0131 10.9388 18.0131 11.4508C18.0131 11.9628 17.5981 12.3778 17.0861 12.3778H7.81562C7.30362 12.3778 6.88857 11.9628 6.88857 11.4508ZM6.88857 17.6311C6.88857 17.1191 7.30362 16.7041 7.81562 16.7041H12.4508C12.9628 16.7041 13.3779 17.1191 13.3779 17.6311C13.3779 18.1431 12.9628 18.5581 12.4508 18.5581H7.81562C7.30362 18.5581 6.88857 18.1431 6.88857 17.6311Z" fill="#FCFCFD"/>
</svg>
