<svg width="20" height="18" viewBox="0 0 20 18" fill="none" xmlns="http://www.w3.org/2000/svg">
<path fill-rule="evenodd" clip-rule="evenodd" d="M0 7.2C0 4.67976 0 3.41965 0.490471 2.45704C0.921901 1.61031 1.61031 0.921901 2.45704 0.490471C3.41965 0 4.67976 0 7.2 0H12.8C15.3202 0 16.5804 0 17.543 0.490471C18.3897 0.921901 19.0781 1.61031 19.5095 2.45704C20 3.41965 20 4.67976 20 7.2V10.7055C19.1304 8.81363 17.2186 7.5 15 7.5C11.9624 7.5 9.5 9.96243 9.5 13C9.5 15.2186 10.8136 17.1304 12.7055 18H3.2C2.0799 18 1.51984 18 1.09202 17.782C0.715695 17.5903 0.409734 17.2843 0.217987 16.908C0 16.4802 0 15.9201 0 14.8V7.2ZM4 7C4 6.44772 4.44772 6 5 6H11C11.5523 6 12 6.44772 12 7C12 7.55228 11.5523 8 11 8H5C4.44772 8 4 7.55228 4 7ZM4 11C4 10.4477 4.44772 10 5 10H8C8.55228 10 9 10.4477 9 11C9 11.5523 8.55228 12 8 12H5C4.44772 12 4 11.5523 4 11Z" fill="#222222"/>
</svg>
