<svg width="32" height="33" viewBox="0 0 32 33" fill="none" xmlns="http://www.w3.org/2000/svg">
<path fill-rule="evenodd" clip-rule="evenodd" d="M3.29289 5.19493C2.63208 5.85573 2.63208 6.91928 2.63208 9.04639V23.7113C2.63208 25.8384 2.63208 26.9019 3.29289 27.5627C3.95369 28.2235 5.01725 28.2235 7.14435 28.2235H24.4414C26.5685 28.2235 27.632 28.2235 28.2929 27.5627C28.9537 26.9019 28.9537 25.8384 28.9537 23.7113V9.04639C28.9537 6.91928 28.9537 5.85573 28.2929 5.19493C27.632 4.53412 26.5685 4.53412 24.4414 4.53412H7.14435C5.01725 4.53412 3.95369 4.53412 3.29289 5.19493ZM21.0573 11.6785C21.4726 11.6785 21.8093 12.0152 21.8093 12.4306V22.9592C21.8093 23.3746 21.4726 23.7113 21.0573 23.7113C20.6419 23.7113 20.3052 23.3746 20.3052 22.9592V12.4306C20.3052 12.0152 20.6419 11.6785 21.0573 11.6785ZM11.2807 15.0627C11.2807 14.6474 10.944 14.3107 10.5286 14.3107C10.1133 14.3107 9.77659 14.6474 9.77659 15.0627V22.9592C9.77659 23.3746 10.1133 23.7113 10.5286 23.7113C10.944 23.7113 11.2807 23.3746 11.2807 22.9592V15.0627ZM16.545 17.6949C16.545 17.2796 16.2083 16.9429 15.7929 16.9429C15.3776 16.9429 15.0409 17.2796 15.0409 17.6949V22.9592C15.0409 23.3746 15.3776 23.7113 15.7929 23.7113C16.2083 23.7113 16.545 23.3746 16.545 22.9592V17.6949Z" fill="#FCFCFD"/>
</svg>
