<svg width="32" height="31" viewBox="0 0 32 31" fill="none" xmlns="http://www.w3.org/2000/svg">
<path d="M26.5813 20.9182C26.5813 22.8741 24.8751 24.5412 22.6667 24.5412C20.4582 24.5412 18.752 22.8741 18.752 20.9182C18.752 18.9623 20.4582 17.2953 22.6667 17.2953C24.8751 17.2953 26.5813 18.9623 26.5813 20.9182Z" stroke="#FCFCFD" stroke-width="1.50409"/>
<path d="M25.3335 23.4182L28.0002 25.9182" stroke="#FCFCFD" stroke-width="1.50409" stroke-linecap="round"/>
<path fill-rule="evenodd" clip-rule="evenodd" d="M2.6665 10.0829C2.6665 8.18756 2.6665 7.2399 3.03536 6.51597C3.35982 5.8792 3.87753 5.36148 4.51431 5.03702C5.23823 4.66817 6.1859 4.66817 8.08123 4.66817H23.9184C25.8138 4.66817 26.7614 4.66817 27.4854 5.03702C28.1221 5.36148 28.6399 5.8792 28.9643 6.51597C29.3332 7.2399 29.3332 8.18756 29.3332 10.0829V18.05C28.1737 15.6852 25.6246 14.0432 22.6665 14.0432C18.6165 14.0432 15.3332 17.1212 15.3332 20.9182C15.3332 23.6914 17.0847 26.0812 19.6072 27.1682H5.07305C4.23068 27.1682 3.80949 27.1682 3.48775 27.0042C3.20474 26.86 2.97464 26.6299 2.83044 26.3469C2.6665 26.0252 2.6665 25.604 2.6665 24.7616V10.0829ZM25.7795 27.1448C26.5339 27.1095 27.0501 27.0211 27.4854 26.7993C28.1221 26.4749 28.6399 25.9571 28.9643 25.3204C29.161 24.9343 29.2528 24.4847 29.2957 23.8617C28.5667 25.302 27.3193 26.467 25.7795 27.1448ZM8.58115 13.4182C8.58115 13.0028 8.91785 12.6661 9.33319 12.6661H17.3332C17.7485 12.6661 18.0852 13.0028 18.0852 13.4182C18.0852 13.8335 17.7485 14.1702 17.3332 14.1702H9.33319C8.91785 14.1702 8.58115 13.8335 8.58115 13.4182ZM8.58115 18.4182C8.58115 18.0028 8.91785 17.6661 9.33319 17.6661H13.3332C13.7485 17.6661 14.0852 18.0028 14.0852 18.4182C14.0852 18.8335 13.7485 19.1702 13.3332 19.1702H9.33319C8.91785 19.1702 8.58115 18.8335 8.58115 18.4182Z" fill="#FCFCFD"/>
</svg>
