<svg width="44" height="43" viewBox="0 0 44 43" fill="none" xmlns="http://www.w3.org/2000/svg">
<path fill-rule="evenodd" clip-rule="evenodd" d="M25.4365 5.9914V5.99142V5.99143C25.5828 7.45457 25.6559 8.18614 25.9622 8.58752C26.3506 9.09664 26.9822 9.35828 27.6169 9.27292C28.1172 9.20562 28.6862 8.74005 29.8243 7.80891C30.4255 7.31698 30.7262 7.07102 31.0496 6.96769C31.4605 6.83645 31.9049 6.85862 32.3007 7.03008C32.6122 7.16509 32.8869 7.43974 33.4362 7.98904L33.4362 7.98906L35.0287 9.58154C35.578 10.1308 35.8527 10.4055 35.9877 10.7171C36.1591 11.1128 36.1813 11.5573 36.0501 11.9681C35.9467 12.2916 35.7008 12.5922 35.2088 13.1934L35.2088 13.1935C34.2777 14.3315 33.8121 14.9005 33.7448 15.4009C33.6595 16.0355 33.9211 16.6672 34.4303 17.0556C34.8316 17.3618 35.5632 17.435 37.0263 17.5813C37.7993 17.6586 38.1857 17.6972 38.4875 17.8529C38.8708 18.0506 39.1695 18.3805 39.328 18.7816C39.4529 19.0974 39.4529 19.4858 39.4529 20.2626V22.515C39.4529 23.2916 39.4529 23.6799 39.3281 23.9957C39.1695 24.3968 38.8708 24.7269 38.4874 24.9246C38.1857 25.0802 37.7993 25.1189 37.0264 25.1961L37.0264 25.1961C35.5637 25.3424 34.8324 25.4155 34.4311 25.7215C33.9217 26.11 33.6599 26.742 33.7454 27.3768C33.8128 27.877 34.2782 28.4458 35.209 29.5834L35.209 29.5834C35.7007 30.1844 35.9466 30.4849 36.0499 30.8083C36.1813 31.2192 36.1591 31.6639 35.9875 32.0598C35.8525 32.3712 35.578 32.6457 35.0289 33.1948L35.0289 33.1949L33.4361 34.7876C32.8868 35.3369 32.6122 35.6115 32.3006 35.7465C31.9049 35.918 31.4604 35.9402 31.0495 35.8089C30.7261 35.7056 30.4255 35.4596 29.8243 34.9677C28.6863 34.0367 28.1173 33.5711 27.617 33.5038C26.9823 33.4184 26.3506 33.6801 25.9622 34.1892C25.656 34.5906 25.5828 35.3223 25.4365 36.7855L25.4365 36.7856C25.3592 37.5589 25.3205 37.9456 25.1648 38.2474C24.9671 38.6306 24.6372 38.9291 24.2363 39.0877C23.9204 39.2126 23.5319 39.2126 22.7549 39.2126H20.503C19.7261 39.2126 19.3377 39.2126 19.0219 39.0878C18.6209 38.9292 18.2909 38.6306 18.0932 38.2473C17.9375 37.9455 17.8989 37.559 17.8216 36.786C17.6753 35.3229 17.6021 34.5913 17.2959 34.1899C16.9075 33.6808 16.2758 33.4192 15.6412 33.5045C15.1409 33.5718 14.5718 34.0374 13.4338 34.9685L13.4338 34.9685L13.4338 34.9685C12.8325 35.4604 12.5319 35.7064 12.2085 35.8097C11.7976 35.941 11.3531 35.9188 10.9574 35.7473C10.6458 35.6123 10.3712 35.3377 9.82187 34.7884L8.22939 33.1959C7.68008 32.6466 7.40542 32.3719 7.27042 32.0603C7.09895 31.6646 7.07678 31.2201 7.20802 30.8093C7.31135 30.4858 7.55732 30.1852 8.04924 29.584C8.98038 28.4459 9.44594 27.8769 9.51324 27.3765C9.59861 26.7419 9.33696 26.1102 8.82784 25.7218C8.42646 25.4156 7.69488 25.3425 6.23172 25.1962C5.4587 25.1189 5.07219 25.0802 4.77039 24.9245C4.3871 24.7268 4.08849 24.3969 3.92992 23.9958C3.80505 23.68 3.80505 23.2916 3.80505 22.5147V20.2629C3.80505 19.4858 3.80505 19.0973 3.92997 18.7814C4.08854 18.3805 4.38708 18.0506 4.77026 17.8529C5.07212 17.6972 5.4587 17.6586 6.23188 17.5812C7.69538 17.4349 8.42713 17.3617 8.82858 17.0554C9.33751 16.667 9.59907 16.0355 9.51382 15.401C9.44657 14.9006 8.98086 14.3314 8.04943 13.193L8.04942 13.1929L8.04942 13.1929C7.55728 12.5914 7.31121 12.2907 7.20788 11.9671C7.07675 11.5564 7.09891 11.1121 7.27025 10.7165C7.40527 10.4048 7.68003 10.13 8.22954 9.58051L8.22955 9.58051L9.82177 7.98828C10.3711 7.43894 10.6458 7.16427 10.9574 7.02926C11.3531 6.85781 11.7975 6.83564 12.2084 6.96687C12.5318 7.0702 12.8325 7.31622 13.4339 7.80825L13.4339 7.80826C14.5718 8.73929 15.1408 9.20481 15.641 9.27217C16.2758 9.35765 16.9077 9.09592 17.2961 8.58658C17.6022 8.18527 17.6753 7.45391 17.8216 5.99118C17.8989 5.21842 17.9375 4.83203 18.0931 4.53031C18.2908 4.14687 18.6209 3.84816 19.0221 3.68958C19.3378 3.56479 19.7261 3.56479 20.5027 3.56479H22.7551C23.5319 3.56479 23.9203 3.56479 24.2361 3.68965C24.6372 3.84822 24.9672 4.14684 25.1649 4.53014C25.3205 4.83193 25.3592 5.21842 25.4365 5.9914ZM21.6291 28.5183C25.5666 28.5183 28.7587 25.3263 28.7587 21.3887C28.7587 17.4512 25.5666 14.2592 21.6291 14.2592C17.6915 14.2592 14.4995 17.4512 14.4995 21.3887C14.4995 25.3263 17.6915 28.5183 21.6291 28.5183Z" fill="#7065D2"/>
</svg>
