<svg width="27" height="27" viewBox="0 0 27 27" fill="none" xmlns="http://www.w3.org/2000/svg">
<path fill-rule="evenodd" clip-rule="evenodd" d="M16.0623 1.28291C16.1751 1.50162 16.2031 1.7817 16.2591 2.34186C16.3651 3.40214 16.4181 3.93228 16.64 4.22315C16.9215 4.59212 17.3793 4.78174 17.8392 4.71987C18.2018 4.67109 18.6141 4.33371 19.4388 3.65896C19.8745 3.30248 20.0924 3.12425 20.3268 3.04936C20.6245 2.95424 20.9466 2.97031 21.2334 3.09458C21.4592 3.19242 21.6582 3.39145 22.0563 3.78951L23.2104 4.94357C23.6084 5.34164 23.8075 5.54067 23.9053 5.76647C24.0296 6.05325 24.0456 6.37536 23.9505 6.67308C23.8756 6.90749 23.6974 7.12534 23.3409 7.56105L23.3409 7.56106C22.6661 8.38577 22.3287 8.79813 22.28 9.16072C22.2181 9.62064 22.4077 10.0784 22.7767 10.3599C23.0675 10.5818 23.5977 10.6348 24.658 10.7408C25.2182 10.7968 25.4983 10.8248 25.717 10.9376C25.9948 11.0809 26.2112 11.32 26.3261 11.6107C26.4166 11.8395 26.4166 12.121 26.4166 12.684V14.3162C26.4166 14.879 26.4166 15.1604 26.3261 15.3892C26.2112 15.6799 25.9948 15.9191 25.7169 16.0624C25.4982 16.1752 25.2182 16.2032 24.6582 16.2592L24.6581 16.2592C23.5982 16.3652 23.0682 16.4182 22.7774 16.6399C22.4082 16.9214 22.2185 17.3794 22.2805 17.8395C22.3293 18.2019 22.6666 18.6141 23.3411 19.4385C23.6975 19.8741 23.8756 20.0919 23.9505 20.3262C24.0457 20.624 24.0296 20.9462 23.9053 21.2331C23.8075 21.4588 23.6085 21.6578 23.2106 22.0557L22.0564 23.2099C21.6583 23.608 21.4593 23.807 21.2335 23.9048C20.9467 24.0291 20.6246 24.0452 20.3268 23.9501C20.0924 23.8752 19.8746 23.6969 19.4389 23.3405C18.6142 22.6657 18.2018 22.3283 17.8393 22.2796C17.3793 22.2177 16.9216 22.4073 16.6401 22.7763C16.4182 23.0671 16.3652 23.5974 16.2591 24.6578C16.2031 25.2182 16.1751 25.4985 16.0622 25.7172C15.919 25.9949 15.6799 26.2112 15.3894 26.3261C15.1605 26.4167 14.8789 26.4167 14.3158 26.4167H12.6839C12.1209 26.4167 11.8394 26.4167 11.6106 26.3262C11.32 26.2113 11.0808 25.9949 10.9376 25.7171C10.8248 25.4984 10.7967 25.2183 10.7407 24.6581C10.6347 23.5978 10.5817 23.0676 10.3598 22.7767C10.0783 22.4078 9.62056 22.2182 9.16066 22.2801C8.79806 22.3288 8.38568 22.6662 7.56093 23.341C7.12521 23.6975 6.90734 23.8758 6.67292 23.9507C6.37521 24.0458 6.05312 24.0297 5.76635 23.9054C5.54054 23.8076 5.3415 23.6086 4.94341 23.2105L3.78939 22.0564C3.39131 21.6584 3.19227 21.4593 3.09443 21.2335C2.97017 20.9468 2.95411 20.6247 3.04922 20.3269C3.1241 20.0925 3.30235 19.8747 3.65884 19.4389C4.33362 18.6142 4.671 18.2019 4.71978 17.8393C4.78165 17.3794 4.59203 16.9216 4.22307 16.6401C3.9322 16.4182 3.40206 16.3652 2.34177 16.2592C1.78161 16.2032 1.50154 16.1752 1.28283 16.0624C1.00506 15.9191 0.788647 15.68 0.67373 15.3893C0.583252 15.1605 0.583252 14.879 0.583252 14.316V12.6841C0.583252 12.121 0.583252 11.8395 0.673777 11.6106C0.788691 11.32 1.00503 11.0809 1.28272 10.9377C1.50147 10.8248 1.78162 10.7968 2.34192 10.7408H2.34193H2.34193C3.4025 10.6347 3.93279 10.5817 4.22371 10.3597C4.59252 10.0783 4.78207 9.62065 4.72029 9.16085C4.67155 8.79817 4.33406 8.38567 3.65907 7.56069L3.65907 7.56068C3.30242 7.12478 3.1241 6.90683 3.04922 6.67232C2.95419 6.3747 2.97025 6.05274 3.09442 5.76606C3.19226 5.54016 3.39138 5.34105 3.7896 4.94282L4.94347 3.78895C5.34156 3.39086 5.5406 3.19182 5.76641 3.09398C6.05318 2.96973 6.37527 2.95366 6.67298 3.04876C6.9074 3.12365 7.1253 3.30193 7.56108 3.65848L7.56109 3.65848C8.38571 4.33318 8.79802 4.67052 9.16049 4.71934C9.62055 4.78129 10.0785 4.59162 10.36 4.2225C10.5817 3.93168 10.6348 3.40168 10.7408 2.34169V2.34169C10.7968 1.78168 10.8247 1.50168 10.9375 1.28303C11.0808 1.00516 11.32 0.788682 11.6107 0.673761C11.8395 0.583332 12.1209 0.583332 12.6837 0.583332H14.316C14.8789 0.583332 15.1604 0.583332 15.3892 0.67381C15.6799 0.788728 15.919 1.00514 16.0623 1.28291ZM13.5 18.6667C16.3535 18.6667 18.6667 16.3535 18.6667 13.5C18.6667 10.6465 16.3535 8.33335 13.5 8.33335C10.6465 8.33335 8.33333 10.6465 8.33333 13.5C8.33333 16.3535 10.6465 18.6667 13.5 18.6667Z" fill="#FCFCFD"/>
</svg>
