<svg width="41" height="41" viewBox="0 0 41 41" fill="none" xmlns="http://www.w3.org/2000/svg">
<path d="M18.5183 23.1308H15.9558C13.9912 23.1308 12.4025 21.4908 12.4025 19.4579C12.4025 18.7575 12.9833 18.1767 13.6837 18.1767C14.3842 18.1767 14.965 18.7575 14.965 19.4579C14.965 20.0729 15.4092 20.5683 15.9558 20.5683H18.5183C18.9112 20.5683 19.2187 20.2096 19.2187 19.7654C19.2187 19.1675 19.1162 19.1333 18.7233 18.9967L14.6062 17.5617C13.12 17.0492 12.3854 16.0071 12.3854 14.3842C12.3854 12.5392 13.8546 11.0187 15.6483 11.0187H18.2108C20.1754 11.0187 21.7642 12.6587 21.7642 14.6917C21.7642 15.3921 21.1833 15.9729 20.4829 15.9729C19.7825 15.9729 19.2017 15.3921 19.2017 14.6917C19.2017 14.0767 18.7575 13.5812 18.2108 13.5812H15.6483C15.2554 13.5812 14.9479 13.94 14.9479 14.3842C14.9479 14.9821 15.0504 15.0162 15.4433 15.1529L19.5604 16.5879C21.0467 17.1175 21.7642 18.1596 21.7642 19.7654C21.7812 21.6275 20.3121 23.1308 18.5183 23.1308Z" fill="url(#paint0_linear_84_343)"/>
<path d="M17.0833 24.4975C16.3829 24.4975 15.8021 23.9167 15.8021 23.2163V21.9521C15.8021 21.2517 16.3829 20.6708 17.0833 20.6708C17.7838 20.6708 18.3646 21.2517 18.3646 21.9521V23.2163C18.3646 23.9338 17.7838 24.4975 17.0833 24.4975Z" fill="url(#paint1_linear_84_343)"/>
<path d="M17.0833 13.5641C16.3829 13.5641 15.8021 12.9833 15.8021 12.2829V10.9504C15.8021 10.25 16.3829 9.66913 17.0833 9.66913C17.7838 9.66913 18.3646 10.25 18.3646 10.9504V12.2829C18.3646 12.9833 17.7838 13.5641 17.0833 13.5641Z" fill="url(#paint2_linear_84_343)"/>
<path d="M17.0662 31.98C8.83208 31.98 2.13541 25.2833 2.13541 17.0491C2.13541 8.81495 8.83208 2.11829 17.0662 2.11829C25.3004 2.11829 31.9971 8.81495 31.9971 17.0491C31.9971 25.2833 25.2833 31.98 17.0662 31.98ZM17.0662 4.69787C10.25 4.69787 4.69791 10.25 4.69791 17.0662C4.69791 23.8825 10.25 29.4175 17.0662 29.4175C23.8825 29.4175 29.4346 23.8654 29.4346 17.0491C29.4346 10.2329 23.8825 4.69787 17.0662 4.69787Z" fill="url(#paint3_linear_84_343)"/>
<path d="M29.0758 38.8134C25.9154 38.8134 22.9429 37.2759 21.115 34.6792C20.705 34.0984 20.8417 33.2955 21.4225 32.8855C22.0033 32.4755 22.8063 32.6121 23.2163 33.193C24.5658 35.1063 26.7525 36.2338 29.0758 36.2338C33.0392 36.2338 36.2508 33.0221 36.2508 29.0588C36.2508 26.7526 35.1233 24.5659 33.2442 23.2163C32.6633 22.8063 32.5438 22.0034 32.9538 21.4226C33.3638 20.8417 34.1667 20.7221 34.7475 21.1321C37.2929 22.9601 38.8133 25.9155 38.8133 29.0588C38.8133 34.4571 34.4571 38.8134 29.0758 38.8134Z" fill="url(#paint4_linear_84_343)"/>
<defs>
<linearGradient id="paint0_linear_84_343" x1="17.0749" y1="11.0187" x2="17.0749" y2="23.1308" gradientUnits="userSpaceOnUse">
<stop stop-color="#7065D2"/>
<stop offset="1" stop-color="#9747FF"/>
</linearGradient>
<linearGradient id="paint1_linear_84_343" x1="17.0833" y1="20.6708" x2="17.0833" y2="24.4975" gradientUnits="userSpaceOnUse">
<stop stop-color="#7065D2"/>
<stop offset="1" stop-color="#9747FF"/>
</linearGradient>
<linearGradient id="paint2_linear_84_343" x1="17.0833" y1="9.66913" x2="17.0833" y2="13.5641" gradientUnits="userSpaceOnUse">
<stop stop-color="#7065D2"/>
<stop offset="1" stop-color="#9747FF"/>
</linearGradient>
<linearGradient id="paint3_linear_84_343" x1="17.0662" y1="2.11829" x2="17.0662" y2="31.98" gradientUnits="userSpaceOnUse">
<stop stop-color="#7065D2"/>
<stop offset="1" stop-color="#9747FF"/>
</linearGradient>
<linearGradient id="paint4_linear_84_343" x1="29.846" y1="20.89" x2="29.846" y2="38.8134" gradientUnits="userSpaceOnUse">
<stop stop-color="#7065D2"/>
<stop offset="1" stop-color="#9747FF"/>
</linearGradient>
</defs>
</svg>
