<svg width="231" height="187" viewBox="0 0 231 187" fill="none" xmlns="http://www.w3.org/2000/svg">
<g filter="url(#filter0_i_94_331)">
<path d="M0.650253 167.366C-1.33374 174.305 2.67725 181.588 9.74019 183.073C33.4718 188.063 58.0021 188.309 81.9073 183.745C110.1 178.364 136.636 166.444 159.385 148.944C182.134 131.444 200.461 108.852 212.893 82.9825C223.434 61.0471 229.488 37.2744 230.751 13.0567C231.127 5.84908 225.117 0.104568 217.901 0.242523L152.299 1.4966C145.083 1.63455 139.441 7.62344 138.553 14.786C137.333 24.633 134.519 34.2461 130.196 43.2413C123.98 56.1758 114.817 67.472 103.443 76.222C92.0681 84.972 78.7998 90.9319 64.7036 93.6227C54.9007 95.494 44.8875 95.748 35.0569 94.4023C27.9062 93.4235 20.6706 97.3409 18.6866 104.28L0.650253 167.366Z" fill="#8D83E1"/>
</g>
<defs>
<filter id="filter0_i_94_331" x="0.143585" y="0.240082" width="230.624" height="191.116" filterUnits="userSpaceOnUse" color-interpolation-filters="sRGB">
<feFlood flood-opacity="0" result="BackgroundImageFix"/>
<feBlend mode="normal" in="SourceGraphic" in2="BackgroundImageFix" result="shape"/>
<feColorMatrix in="SourceAlpha" type="matrix" values="0 0 0 0 0 0 0 0 0 0 0 0 0 0 0 0 0 0 127 0" result="hardAlpha"/>
<feMorphology radius="10.8902" operator="dilate" in="SourceAlpha" result="effect1_innerShadow_94_331"/>
<feOffset dy="4.35608"/>
<feGaussianBlur stdDeviation="21.7804"/>
<feComposite in2="hardAlpha" operator="arithmetic" k2="-1" k3="1"/>
<feColorMatrix type="matrix" values="0 0 0 0 0.307742 0 0 0 0 0.25291 0 0 0 0 0.768333 0 0 0 1 0"/>
<feBlend mode="normal" in2="shape" result="effect1_innerShadow_94_331"/>
</filter>
</defs>
</svg>
