<svg width="31" height="31" viewBox="0 0 31 31" fill="none" xmlns="http://www.w3.org/2000/svg">
<path fill-rule="evenodd" clip-rule="evenodd" d="M18.0624 3.28291C18.1752 3.50162 18.2032 3.7817 18.2592 4.34186C18.3653 5.40214 18.4183 5.93228 18.6402 6.22315C18.9216 6.59212 19.3794 6.78174 19.8393 6.71987C20.2019 6.67109 20.6143 6.33371 21.439 5.65896C21.8747 5.30248 22.0925 5.12425 22.3269 5.04936C22.6246 4.95424 22.9467 4.97031 23.2335 5.09458C23.4593 5.19242 23.6584 5.39145 24.0564 5.78951L25.2105 6.94357C25.6085 7.34164 25.8076 7.54067 25.9054 7.76647C26.0297 8.05325 26.0457 8.37536 25.9506 8.67308C25.8758 8.90749 25.6975 9.12534 25.341 9.56105L25.341 9.56106C24.6662 10.3858 24.3289 10.7981 24.2801 11.1607C24.2182 11.6206 24.4078 12.0784 24.7768 12.3599C25.0677 12.5818 25.5978 12.6348 26.6582 12.7408C27.2183 12.7968 27.4984 12.8248 27.7171 12.9376C27.9949 13.0809 28.2113 13.32 28.3262 13.6107C28.4167 13.8395 28.4167 14.121 28.4167 14.684V16.3162C28.4167 16.879 28.4167 17.1604 28.3263 17.3892C28.2113 17.6799 27.9949 17.9191 27.717 18.0624C27.4984 18.1752 27.2183 18.2032 26.6583 18.2592L26.6583 18.2592C25.5983 18.3652 25.0683 18.4182 24.7775 18.6399C24.4083 18.9214 24.2186 19.3794 24.2806 19.8395C24.3294 20.2019 24.6667 20.6141 25.3412 21.4385C25.6976 21.8741 25.8758 22.0919 25.9506 22.3262C26.0458 22.624 26.0298 22.9462 25.9054 23.2331C25.8076 23.4588 25.6086 23.6578 25.2107 24.0557L24.0565 25.2099C23.6584 25.608 23.4594 25.807 23.2336 25.9048C22.9468 26.0291 22.6247 26.0452 22.327 25.9501C22.0926 25.8752 21.8747 25.6969 21.439 25.3405C20.6143 24.6657 20.202 24.3283 19.8394 24.2796C19.3795 24.2177 18.9217 24.4073 18.6402 24.7763C18.4183 25.0671 18.3653 25.5974 18.2593 26.6578C18.2032 27.2182 18.1752 27.4985 18.0623 27.7172C17.9191 27.9949 17.68 28.2112 17.3895 28.3261C17.1606 28.4167 16.879 28.4167 16.3159 28.4167H14.684C14.121 28.4167 13.8396 28.4167 13.6107 28.3262C13.3201 28.2113 13.081 27.9949 12.9377 27.7171C12.8249 27.4984 12.7969 27.2183 12.7409 26.6581C12.6348 25.5978 12.5818 25.0676 12.3599 24.7767C12.0784 24.4078 11.6207 24.2182 11.1608 24.2801C10.7982 24.3288 10.3858 24.6662 9.56105 25.341C9.12533 25.6975 8.90747 25.8758 8.67304 25.9507C8.37533 26.0458 8.05324 26.0297 7.76647 25.9054C7.54067 25.8076 7.34162 25.6086 6.94353 25.2105L5.78951 24.0564C5.39143 23.6584 5.19239 23.4593 5.09455 23.2335C4.9703 22.9468 4.95423 22.6247 5.04934 22.3269C5.12422 22.0925 5.30247 21.8747 5.65897 21.4389C6.33374 20.6142 6.67113 20.2019 6.7199 19.8393C6.78177 19.3794 6.59216 18.9216 6.22319 18.6401C5.93232 18.4182 5.40218 18.3652 4.34189 18.2592C3.78174 18.2032 3.50166 18.1752 3.28296 18.0624C3.00518 17.9191 2.78877 17.68 2.67385 17.3893C2.58337 17.1605 2.58337 16.879 2.58337 16.316V14.6841C2.58337 14.121 2.58337 13.8395 2.6739 13.6106C2.78881 13.32 3.00516 13.0809 3.28284 12.9377C3.50159 12.8248 3.78174 12.7968 4.34204 12.7408H4.34205H4.34206C5.40262 12.6347 5.93291 12.5817 6.22383 12.3597C6.59264 12.0783 6.78219 11.6207 6.72041 11.1609C6.67168 10.7982 6.33418 10.3857 5.65919 9.56069L5.65919 9.56068C5.30254 9.12478 5.12422 8.90683 5.04934 8.67232C4.95431 8.3747 4.97037 8.05274 5.09454 7.76606C5.19238 7.54016 5.3915 7.34105 5.78972 6.94282L6.94359 5.78895C7.34168 5.39086 7.54072 5.19182 7.76653 5.09398C8.0533 4.96973 8.37539 4.95366 8.6731 5.04876C8.90752 5.12365 9.12542 5.30193 9.56121 5.65848L9.56121 5.65848C10.3858 6.33318 10.7981 6.67052 11.1606 6.71934C11.6207 6.78129 12.0786 6.59162 12.3601 6.2225C12.5819 5.93168 12.6349 5.40168 12.7409 4.34169V4.34169C12.7969 3.78168 12.8249 3.50168 12.9376 3.28303C13.0809 3.00516 13.3201 2.78868 13.6109 2.67376C13.8396 2.58333 14.121 2.58333 14.6838 2.58333H16.3161C16.879 2.58333 17.1605 2.58333 17.3894 2.67381C17.68 2.78873 17.9191 3.00514 18.0624 3.28291ZM15.5001 20.6667C18.3536 20.6667 20.6668 18.3535 20.6668 15.5C20.6668 12.6465 18.3536 10.3334 15.5001 10.3334C12.6467 10.3334 10.3335 12.6465 10.3335 15.5C10.3335 18.3535 12.6467 20.6667 15.5001 20.6667Z" fill="#FCFCFD"/>
</svg>
