<svg width="32" height="32" viewBox="0 0 32 32" fill="none" xmlns="http://www.w3.org/2000/svg">
<path fill-rule="evenodd" clip-rule="evenodd" d="M3.29313 4.60905C2.63232 5.26986 2.63232 6.33341 2.63232 8.46051V23.1254C2.63232 25.2525 2.63232 26.3161 3.29313 26.9769C3.95394 27.6377 5.01749 27.6377 7.14459 27.6377H24.4416C26.5687 27.6377 27.6323 27.6377 28.2931 26.9769C28.9539 26.3161 28.9539 25.2525 28.9539 23.1254V8.46051C28.9539 6.33341 28.9539 5.26986 28.2931 4.60905C27.6323 3.94824 26.5687 3.94824 24.4416 3.94824H7.1446C5.01749 3.94824 3.95394 3.94824 3.29313 4.60905ZM21.0575 11.0927C21.4729 11.0927 21.8096 11.4294 21.8096 11.8447V22.3733C21.8096 22.7887 21.4729 23.1254 21.0575 23.1254C20.6422 23.1254 20.3055 22.7887 20.3055 22.3733V11.8447C20.3055 11.4294 20.6422 11.0927 21.0575 11.0927ZM11.2809 14.4769C11.2809 14.0615 10.9442 13.7248 10.5289 13.7248C10.1135 13.7248 9.77683 14.0615 9.77683 14.4769V22.3733C9.77683 22.7887 10.1135 23.1254 10.5289 23.1254C10.9442 23.1254 11.2809 22.7887 11.2809 22.3733V14.4769ZM16.5452 17.109C16.5452 16.6937 16.2085 16.357 15.7932 16.357C15.3779 16.357 15.0411 16.6937 15.0411 17.109V22.3733C15.0411 22.7887 15.3779 23.1254 15.7932 23.1254C16.2085 23.1254 16.5452 22.7887 16.5452 22.3733V17.109Z" fill="#FCFCFD"/>
</svg>
