<svg width="52" height="23" viewBox="0 0 52 23" fill="none" xmlns="http://www.w3.org/2000/svg">
<path d="M42.4118 20.1667H45.2812C47.1521 20.1667 48.0876 20.1667 48.6688 19.5855C49.25 19.0043 49.25 18.0688 49.25 16.198V10.0209C49.25 6.2791 49.25 4.40821 48.0876 3.24579C46.9252 2.08337 45.0543 2.08337 41.3125 2.08337H10.6875C6.94573 2.08337 5.07484 2.08337 3.91242 3.24579C2.75 4.40821 2.75 6.2791 2.75 10.0209V18.1823C2.75 19.1178 2.75 19.5855 3.0406 19.8761C3.33121 20.1667 3.79893 20.1667 4.73437 20.1667H9.58824" stroke="url(#paint0_linear_197_514)" stroke-width="3.96875"/>
<defs>
<linearGradient id="paint0_linear_197_514" x1="26" y1="2.08337" x2="26" y2="20.1667" gradientUnits="userSpaceOnUse">
<stop stop-color="#7065D2"/>
<stop offset="1" stop-color="#A54FCD"/>
</linearGradient>
</defs>
</svg>
