<svg width="64" height="29" viewBox="0 0 64 29" fill="none" xmlns="http://www.w3.org/2000/svg">
<path d="M52.7115 26.1453H56.3215C58.6752 26.1453 59.8521 26.1453 60.5833 25.4141C61.3145 24.6829 61.3145 23.506 61.3145 21.1523V13.3812C61.3145 8.67376 61.3145 6.32006 59.8521 4.85766C58.3897 3.39526 56.036 3.39526 51.3286 3.39526H12.8003C8.09295 3.39526 5.73925 3.39526 4.27685 4.85766C2.81445 6.32006 2.81445 8.67376 2.81445 13.3811V23.6488C2.81445 24.8256 2.81445 25.4141 3.18005 25.7797C3.54565 26.1453 4.13408 26.1453 5.31093 26.1453H11.4174" stroke="url(#paint0_linear_204_550)" stroke-width="4.99294"/>
<defs>
<linearGradient id="paint0_linear_204_550" x1="32.0645" y1="3.39526" x2="32.0645" y2="26.1453" gradientUnits="userSpaceOnUse">
<stop stop-color="#7065D2"/>
<stop offset="1" stop-color="#A54FCD"/>
</linearGradient>
</defs>
</svg>
