<svg width="31" height="31" viewBox="0 0 31 31" fill="none" xmlns="http://www.w3.org/2000/svg">
<path fill-rule="evenodd" clip-rule="evenodd" d="M18.0625 3.28291C18.1753 3.50162 18.2033 3.7817 18.2593 4.34186C18.3654 5.40214 18.4184 5.93228 18.6403 6.22315C18.9218 6.59212 19.3795 6.78174 19.8395 6.71987C20.202 6.67109 20.6144 6.33371 21.4391 5.65896C21.8748 5.30248 22.0926 5.12425 22.327 5.04936C22.6248 4.95424 22.9469 4.97031 23.2337 5.09458C23.4594 5.19242 23.6585 5.39145 24.0565 5.78951L25.2106 6.94357C25.6087 7.34164 25.8077 7.54067 25.9055 7.76647C26.0298 8.05325 26.0459 8.37536 25.9508 8.67308C25.8759 8.90749 25.6976 9.12534 25.3411 9.56105L25.3411 9.56106C24.6664 10.3858 24.329 10.7981 24.2802 11.1607C24.2184 11.6206 24.408 12.0784 24.7769 12.3599C25.0678 12.5818 25.598 12.6348 26.6583 12.7408C27.2185 12.7968 27.4986 12.8248 27.7173 12.9376C27.995 13.0809 28.2114 13.32 28.3263 13.6107C28.4168 13.8395 28.4168 14.121 28.4168 14.684V16.3162C28.4168 16.879 28.4168 17.1604 28.3264 17.3892C28.2115 17.6799 27.995 17.9191 27.7172 18.0624C27.4985 18.1752 27.2185 18.2032 26.6584 18.2592L26.6584 18.2592C25.5984 18.3652 25.0684 18.4182 24.7776 18.6399C24.4085 18.9214 24.2188 19.3794 24.2807 19.8395C24.3296 20.2019 24.6668 20.6141 25.3413 21.4385C25.6977 21.8741 25.8759 22.0919 25.9508 22.3262C26.046 22.624 26.0299 22.9462 25.9055 23.2331C25.8077 23.4588 25.6087 23.6578 25.2108 24.0557L24.0566 25.2099C23.6585 25.608 23.4595 25.807 23.2337 25.9048C22.9469 26.0291 22.6248 26.0452 22.3271 25.9501C22.0927 25.8752 21.8748 25.6969 21.4391 25.3405C20.6144 24.6657 20.2021 24.3283 19.8395 24.2796C19.3796 24.2177 18.9218 24.4073 18.6403 24.7763C18.4184 25.0671 18.3654 25.5974 18.2594 26.6578C18.2033 27.2182 18.1753 27.4985 18.0625 27.7172C17.9192 27.9949 17.6802 28.2112 17.3896 28.3261C17.1607 28.4167 16.8791 28.4167 16.316 28.4167H14.6841C14.1212 28.4167 13.8397 28.4167 13.6108 28.3262C13.3202 28.2113 13.0811 27.9949 12.9378 27.7171C12.825 27.4984 12.797 27.2183 12.741 26.6581C12.6349 25.5978 12.5819 25.0676 12.36 24.7767C12.0785 24.4078 11.6208 24.2182 11.1609 24.2801C10.7983 24.3288 10.3859 24.6662 9.56118 25.341C9.12545 25.6975 8.90759 25.8758 8.67317 25.9507C8.37546 26.0458 8.05336 26.0297 7.76659 25.9054C7.54079 25.8076 7.34174 25.6086 6.94366 25.2105L5.78963 24.0564C5.39155 23.6584 5.19251 23.4593 5.09468 23.2335C4.97042 22.9468 4.95435 22.6247 5.04946 22.3269C5.12434 22.0925 5.30259 21.8747 5.65909 21.4389C6.33386 20.6142 6.67125 20.2019 6.72002 19.8393C6.78189 19.3794 6.59228 18.9216 6.22331 18.6401C5.93244 18.4182 5.4023 18.3652 4.34201 18.2592C3.78186 18.2032 3.50178 18.1752 3.28308 18.0624C3.0053 17.9191 2.78889 17.68 2.67397 17.3893C2.5835 17.1605 2.5835 16.879 2.5835 16.316V14.6841C2.5835 14.121 2.5835 13.8395 2.67402 13.6106C2.78894 13.32 3.00528 13.0809 3.28296 12.9377C3.50171 12.8248 3.78186 12.7968 4.34216 12.7408H4.34217H4.34218C5.40275 12.6347 5.93303 12.5817 6.22395 12.3597C6.59276 12.0783 6.78232 11.6207 6.72053 11.1609C6.6718 10.7982 6.3343 10.3857 5.65932 9.56069L5.65931 9.56068C5.30267 9.12478 5.12434 8.90683 5.04946 8.67232C4.95444 8.3747 4.97049 8.05274 5.09466 7.76606C5.19251 7.54016 5.39162 7.34105 5.78984 6.94282L6.94372 5.78895C7.3418 5.39086 7.54085 5.19182 7.76665 5.09398C8.05342 4.96973 8.37551 4.95366 8.67322 5.04876C8.90764 5.12365 9.12554 5.30193 9.56133 5.65848L9.56133 5.65848C10.386 6.33318 10.7983 6.67052 11.1607 6.71934C11.6208 6.78129 12.0787 6.59162 12.3602 6.2225C12.582 5.93168 12.635 5.40168 12.741 4.34169V4.34169C12.797 3.78168 12.825 3.50168 12.9377 3.28303C13.081 3.00516 13.3202 2.78868 13.611 2.67376C13.8398 2.58333 14.1212 2.58333 14.684 2.58333H16.3162C16.8792 2.58333 17.1606 2.58333 17.3895 2.67381C17.6801 2.78873 17.9193 3.00514 18.0625 3.28291ZM15.5002 20.6667C18.3537 20.6667 20.6669 18.3535 20.6669 15.5C20.6669 12.6465 18.3537 10.3334 15.5002 10.3334C12.6468 10.3334 10.3336 12.6465 10.3336 15.5C10.3336 18.3535 12.6468 20.6667 15.5002 20.6667Z" fill="#FCFCFD"/>
</svg>
