<svg width="22" height="28" viewBox="0 0 22 28" fill="none" xmlns="http://www.w3.org/2000/svg">
<path fill-rule="evenodd" clip-rule="evenodd" d="M11.5158 0V8.03748L11.5158 8.0784C11.5157 8.39732 11.5157 8.70726 11.5501 8.96289C11.5888 9.25107 11.6832 9.57992 11.9564 9.85308C12.2295 10.1262 12.5584 10.2206 12.8465 10.2594C13.1022 10.2937 13.4121 10.2937 13.731 10.2936L13.7719 10.2936H21.8093V19.0831C21.8093 22.9385 21.8093 24.8662 20.6116 26.0639C19.4139 27.2616 17.4862 27.2616 13.6308 27.2616H8.17849C4.32311 27.2616 2.39542 27.2616 1.19771 26.0639C0 24.8662 0 22.9385 0 19.0831V8.17849C0 4.32311 0 2.39542 1.19771 1.19771C2.39542 0 4.32311 0 8.17849 0H11.5158ZM13.0199 0.000145962V8.03748C13.0199 8.41326 13.0215 8.61944 13.0407 8.76247L13.0415 8.76795L13.047 8.7687C13.19 8.78793 13.3962 8.78952 13.7719 8.78952H21.8092C21.8077 7.8609 21.7909 7.35782 21.6018 6.90137C21.3943 6.40038 21.0003 6.00641 20.2124 5.21849L20.2124 5.21847L20.2124 5.21846L16.5909 1.59695C15.8029 0.809006 15.4089 0.415034 14.9079 0.207517C14.4515 0.018455 13.9485 0.00164126 13.0199 0.000145962ZM6.06337 14.9939C6.06337 14.5786 6.40007 14.2419 6.81542 14.2419L14.9939 14.2419C15.4093 14.2419 15.746 14.5786 15.746 14.9939C15.746 15.4093 15.4093 15.746 14.9939 15.746H6.81542C6.40007 15.746 6.06337 15.4092 6.06337 14.9939ZM6.81542 19.6942C6.40007 19.6942 6.06337 20.0309 6.06337 20.4462C6.06337 20.8616 6.40007 21.1983 6.81542 21.1983L12.2677 21.1983C12.6831 21.1983 13.0198 20.8616 13.0198 20.4462C13.0198 20.0309 12.6831 19.6942 12.2677 19.6942H6.81542Z" fill="#EEEEFF"/>
</svg>
