<svg width="42" height="39" viewBox="0 0 42 39" fill="none" xmlns="http://www.w3.org/2000/svg">
<path d="M3.19287 34.3964L3.19287 7.69956C3.19287 5.53468 3.19287 4.45223 3.86541 3.77969C4.53796 3.10715 5.6204 3.10715 7.78528 3.10715L34.4719 3.10715C36.6368 3.10715 37.7192 3.10715 38.3918 3.77969C39.0643 4.45223 39.0643 5.53467 39.0643 7.69956L39.0643 34.3964C39.0643 35.1233 39.0643 35.4867 38.8259 35.6585C38.5875 35.8304 38.2427 35.7154 37.5531 35.4856L30.4595 33.121C30.2796 33.061 30.1896 33.0311 30.0964 33.0311C30.0033 33.0311 29.9133 33.061 29.7334 33.121L21.4916 35.8683C21.3117 35.9282 21.2217 35.9582 21.1286 35.9582C21.0354 35.9582 20.9455 35.9282 20.7655 35.8683L12.5238 33.121C12.3439 33.061 12.2539 33.0311 12.1607 33.0311C12.0676 33.0311 11.9776 33.061 11.7977 33.121L4.70404 35.4856C4.01446 35.7154 3.66967 35.8304 3.43127 35.6585C3.19287 35.4867 3.19287 35.1233 3.19287 34.3964Z" stroke="url(#paint0_linear_418_324)" stroke-width="4.59241"/>
<defs>
<linearGradient id="paint0_linear_418_324" x1="3.19287" y1="19.5482" x2="39.0643" y2="19.5482" gradientUnits="userSpaceOnUse">
<stop stop-color="#7065D2"/>
<stop offset="1" stop-color="#A54FCD"/>
</linearGradient>
</defs>
</svg>
