<svg width="32" height="32" viewBox="0 0 32 32" fill="none" xmlns="http://www.w3.org/2000/svg">
<path fill-rule="evenodd" clip-rule="evenodd" d="M3.29289 4.60905C2.63208 5.26986 2.63208 6.33341 2.63208 8.46051V23.1254C2.63208 25.2525 2.63208 26.3161 3.29289 26.9769C3.95369 27.6377 5.01725 27.6377 7.14435 27.6377H24.4414C26.5685 27.6377 27.632 27.6377 28.2929 26.9769C28.9537 26.3161 28.9537 25.2525 28.9537 23.1254V8.46051C28.9537 6.33341 28.9537 5.26986 28.2929 4.60905C27.632 3.94824 26.5685 3.94824 24.4414 3.94824H7.14435C5.01725 3.94824 3.95369 3.94824 3.29289 4.60905ZM21.0573 11.0927C21.4726 11.0927 21.8093 11.4294 21.8093 11.8447V22.3733C21.8093 22.7887 21.4726 23.1254 21.0573 23.1254C20.6419 23.1254 20.3052 22.7887 20.3052 22.3733V11.8447C20.3052 11.4294 20.6419 11.0927 21.0573 11.0927ZM11.2807 14.4769C11.2807 14.0615 10.944 13.7248 10.5286 13.7248C10.1133 13.7248 9.77659 14.0615 9.77659 14.4769V22.3733C9.77659 22.7887 10.1133 23.1254 10.5286 23.1254C10.944 23.1254 11.2807 22.7887 11.2807 22.3733V14.4769ZM16.545 17.109C16.545 16.6937 16.2083 16.357 15.7929 16.357C15.3776 16.357 15.0409 16.6937 15.0409 17.109V22.3733C15.0409 22.7887 15.3776 23.1254 15.7929 23.1254C16.2083 23.1254 16.545 22.7887 16.545 22.3733V17.109Z" fill="#7065D2"/>
</svg>
