<svg width="27" height="25" viewBox="0 0 27 25" fill="none" xmlns="http://www.w3.org/2000/svg">
<path fill-rule="evenodd" clip-rule="evenodd" d="M1.29301 1.60905C0.632202 2.26986 0.632202 3.33341 0.632202 5.46051V20.1254C0.632202 22.2525 0.632202 23.3161 1.29301 23.9769C1.95382 24.6377 3.01737 24.6377 5.14447 24.6377H22.4415C24.5686 24.6377 25.6322 24.6377 26.293 23.9769C26.9538 23.3161 26.9538 22.2525 26.9538 20.1254V5.46051C26.9538 3.33341 26.9538 2.26986 26.293 1.60905C25.6322 0.948242 24.5686 0.948242 22.4415 0.948242H5.14447C3.01737 0.948242 1.95382 0.948242 1.29301 1.60905ZM19.0574 8.09267C19.4727 8.09267 19.8094 8.42937 19.8094 8.84471V19.3733C19.8094 19.7887 19.4727 20.1254 19.0574 20.1254C18.642 20.1254 18.3053 19.7887 18.3053 19.3733V8.84471C18.3053 8.42937 18.642 8.09267 19.0574 8.09267ZM9.2808 11.4769C9.2808 11.0615 8.9441 10.7248 8.52876 10.7248C8.11341 10.7248 7.77671 11.0615 7.77671 11.4769V19.3733C7.77671 19.7887 8.11341 20.1254 8.52876 20.1254C8.9441 20.1254 9.2808 19.7887 9.2808 19.3733V11.4769ZM14.5451 14.109C14.5451 13.6937 14.2084 13.357 13.7931 13.357C13.3777 13.357 13.041 13.6937 13.041 14.109V19.3733C13.041 19.7887 13.3777 20.1254 13.7931 20.1254C14.2084 20.1254 14.5451 19.7887 14.5451 19.3733V14.109Z" fill="#FCFCFD"/>
</svg>
