<svg width="24" height="30" viewBox="0 0 24 30" fill="none" xmlns="http://www.w3.org/2000/svg">
<path fill-rule="evenodd" clip-rule="evenodd" d="M12.4061 0V8.65886L12.4061 8.70294C12.406 9.04652 12.4059 9.38042 12.4429 9.65581C12.4847 9.96628 12.5864 10.3206 12.8807 10.6148C13.1749 10.9091 13.5292 11.0108 13.8397 11.0525C14.1151 11.0896 14.449 11.0895 14.7925 11.0894L14.8366 11.0894H23.4954V20.5585C23.4954 24.7119 23.4954 26.7886 22.2051 28.0789C20.9148 29.3692 18.8381 29.3692 14.6846 29.3692H8.81077C4.65733 29.3692 2.58062 29.3692 1.29031 28.0789C0 26.7886 0 24.7119 0 20.5585V8.81077C0 4.65733 0 2.58062 1.29031 1.29031C2.58062 0 4.65733 0 8.81077 0H12.4061ZM14.0264 0.00015718V8.65886C14.0264 9.06369 14.0282 9.28581 14.0489 9.4399L14.0497 9.4458L14.0556 9.44661C14.2097 9.46733 14.4318 9.46905 14.8366 9.46905H23.4952C23.4936 8.46863 23.4755 7.92666 23.2718 7.43491C23.0483 6.89519 22.6238 6.47077 21.775 5.62191L21.775 5.6219L17.8735 1.72041C17.0246 0.87155 16.6002 0.44712 16.0605 0.22356C15.5688 0.0198791 15.0268 0.00176765 14.0264 0.00015718ZM6.53215 16.1531C6.53215 15.7056 6.89488 15.3429 7.34233 15.3429L16.1531 15.3429C16.6006 15.3429 16.9633 15.7056 16.9633 16.1531C16.9633 16.6005 16.6006 16.9633 16.1531 16.9633H7.34233C6.89488 16.9633 6.53215 16.6005 6.53215 16.1531ZM7.34233 21.2167C6.89488 21.2167 6.53215 21.5795 6.53215 22.0269C6.53215 22.4744 6.89488 22.8371 7.34233 22.8371H13.2162C13.6636 22.8371 14.0264 22.4744 14.0264 22.0269C14.0264 21.5795 13.6636 21.2167 13.2162 21.2167L7.34233 21.2167Z" fill="#EEEEFF"/>
</svg>
