<svg width="27" height="25" viewBox="0 0 27 25" fill="none" xmlns="http://www.w3.org/2000/svg">
<path fill-rule="evenodd" clip-rule="evenodd" d="M1.29289 1.60905C0.63208 2.26986 0.63208 3.33341 0.63208 5.46051V20.1254C0.63208 22.2525 0.63208 23.3161 1.29289 23.9769C1.95369 24.6377 3.01725 24.6377 5.14435 24.6377H22.4414C24.5685 24.6377 25.632 24.6377 26.2929 23.9769C26.9537 23.3161 26.9537 22.2525 26.9537 20.1254V5.46051C26.9537 3.33341 26.9537 2.26986 26.2929 1.60905C25.632 0.948242 24.5685 0.948242 22.4414 0.948242H5.14435C3.01725 0.948242 1.95369 0.948242 1.29289 1.60905ZM19.0573 8.09267C19.4726 8.09267 19.8093 8.42937 19.8093 8.84471V19.3733C19.8093 19.7887 19.4726 20.1254 19.0573 20.1254C18.6419 20.1254 18.3052 19.7887 18.3052 19.3733V8.84471C18.3052 8.42937 18.6419 8.09267 19.0573 8.09267ZM9.28068 11.4769C9.28068 11.0615 8.94398 10.7248 8.52863 10.7248C8.11329 10.7248 7.77659 11.0615 7.77659 11.4769V19.3733C7.77659 19.7887 8.11329 20.1254 8.52863 20.1254C8.94398 20.1254 9.28068 19.7887 9.28068 19.3733V11.4769ZM14.545 14.109C14.545 13.6937 14.2083 13.357 13.7929 13.357C13.3776 13.357 13.0409 13.6937 13.0409 14.109V19.3733C13.0409 19.7887 13.3776 20.1254 13.7929 20.1254C14.2083 20.1254 14.545 19.7887 14.545 19.3733V14.109Z" fill="#FCFCFD"/>
</svg>
