<svg width="36" height="32" viewBox="0 0 36 32" fill="none" xmlns="http://www.w3.org/2000/svg">
<path fill-rule="evenodd" clip-rule="evenodd" d="M1.37868 1.12868C0.5 2.00736 0.5 3.42157 0.5 6.25V25.75C0.5 28.5784 0.5 29.9926 1.37868 30.8713C2.25736 31.75 3.67157 31.75 6.5 31.75H29.5C32.3284 31.75 33.7426 31.75 34.6213 30.8713C35.5 29.9926 35.5 28.5784 35.5 25.75V6.25C35.5 3.42157 35.5 2.00736 34.6213 1.12868C33.7426 0.25 32.3284 0.25 29.5 0.25H6.5C3.67157 0.25 2.25736 0.25 1.37868 1.12868ZM25 9.75C25.5523 9.75 26 10.1977 26 10.75V24.75C26 25.3023 25.5523 25.75 25 25.75C24.4477 25.75 24 25.3023 24 24.75V10.75C24 10.1977 24.4477 9.75 25 9.75ZM12 14.25C12 13.6977 11.5523 13.25 11 13.25C10.4477 13.25 10 13.6977 10 14.25V24.75C10 25.3023 10.4477 25.75 11 25.75C11.5523 25.75 12 25.3023 12 24.75V14.25ZM19 17.75C19 17.1977 18.5523 16.75 18 16.75C17.4477 16.75 17 17.1977 17 17.75V24.75C17 25.3023 17.4477 25.75 18 25.75C18.5523 25.75 19 25.3023 19 24.75V17.75Z" fill="#FCFCFD"/>
</svg>
