<svg width="60" height="27" viewBox="0 0 60 27" fill="none" xmlns="http://www.w3.org/2000/svg">
<path d="M49.1194 24.0643H52.4398C54.6047 24.0643 55.6872 24.0643 56.3597 23.3917C57.0322 22.7192 57.0322 21.6368 57.0322 19.4719V12.3241C57.0322 7.99434 57.0322 5.82945 55.6872 4.48437C54.3421 3.13928 52.1772 3.13928 47.8474 3.13928H12.4099C8.08015 3.13928 5.91527 3.13928 4.57018 4.48437C3.2251 5.82945 3.2251 7.99434 3.2251 12.3241V21.7681C3.2251 22.8505 3.2251 23.3917 3.56137 23.728C3.89764 24.0643 4.43886 24.0643 5.5213 24.0643H11.1379" stroke="url(#paint0_linear_418_313)" stroke-width="4.59241"/>
<defs>
<linearGradient id="paint0_linear_418_313" x1="30.1287" y1="3.13928" x2="30.1287" y2="24.0643" gradientUnits="userSpaceOnUse">
<stop stop-color="#7065D2"/>
<stop offset="1" stop-color="#A54FCD"/>
</linearGradient>
</defs>
</svg>
