<svg width="31" height="31" viewBox="0 0 31 31" fill="none" xmlns="http://www.w3.org/2000/svg">
<path fill-rule="evenodd" clip-rule="evenodd" d="M18.0623 3.28291C18.1751 3.50162 18.2031 3.7817 18.2591 4.34186C18.3651 5.40214 18.4181 5.93228 18.64 6.22315C18.9215 6.59212 19.3793 6.78174 19.8392 6.71987C20.2018 6.67109 20.6141 6.33371 21.4388 5.65896C21.8745 5.30248 22.0924 5.12425 22.3268 5.04936C22.6245 4.95424 22.9466 4.97031 23.2334 5.09458C23.4592 5.19242 23.6582 5.39145 24.0563 5.78951L25.2104 6.94357C25.6084 7.34164 25.8075 7.54067 25.9053 7.76647C26.0296 8.05325 26.0456 8.37536 25.9505 8.67308C25.8756 8.90749 25.6974 9.12534 25.3409 9.56105L25.3409 9.56106C24.6661 10.3858 24.3287 10.7981 24.28 11.1607C24.2181 11.6206 24.4077 12.0784 24.7767 12.3599C25.0675 12.5818 25.5977 12.6348 26.658 12.7408C27.2182 12.7968 27.4983 12.8248 27.717 12.9376C27.9948 13.0809 28.2112 13.32 28.3261 13.6107C28.4166 13.8395 28.4166 14.121 28.4166 14.684V16.3162C28.4166 16.879 28.4166 17.1604 28.3261 17.3892C28.2112 17.6799 27.9948 17.9191 27.7169 18.0624C27.4982 18.1752 27.2182 18.2032 26.6582 18.2592L26.6581 18.2592C25.5982 18.3652 25.0682 18.4182 24.7774 18.6399C24.4082 18.9214 24.2185 19.3794 24.2805 19.8395C24.3293 20.2019 24.6666 20.6141 25.3411 21.4385C25.6975 21.8741 25.8756 22.0919 25.9505 22.3262C26.0457 22.624 26.0296 22.9462 25.9053 23.2331C25.8075 23.4588 25.6085 23.6578 25.2106 24.0557L24.0564 25.2099C23.6583 25.608 23.4593 25.807 23.2335 25.9048C22.9467 26.0291 22.6246 26.0452 22.3268 25.9501C22.0924 25.8752 21.8746 25.6969 21.4389 25.3405C20.6142 24.6657 20.2018 24.3283 19.8393 24.2796C19.3793 24.2177 18.9216 24.4073 18.6401 24.7763C18.4182 25.0671 18.3652 25.5974 18.2591 26.6578C18.2031 27.2182 18.1751 27.4985 18.0622 27.7172C17.919 27.9949 17.6799 28.2112 17.3894 28.3261C17.1605 28.4167 16.8789 28.4167 16.3158 28.4167H14.6839C14.1209 28.4167 13.8394 28.4167 13.6106 28.3262C13.32 28.2113 13.0808 27.9949 12.9376 27.7171C12.8248 27.4984 12.7967 27.2183 12.7407 26.6581C12.6347 25.5978 12.5817 25.0676 12.3598 24.7767C12.0783 24.4078 11.6206 24.2182 11.1607 24.2801C10.7981 24.3288 10.3857 24.6662 9.56093 25.341C9.12521 25.6975 8.90734 25.8758 8.67292 25.9507C8.37521 26.0458 8.05312 26.0297 7.76635 25.9054C7.54054 25.8076 7.3415 25.6086 6.94341 25.2105L5.78939 24.0564C5.39131 23.6584 5.19227 23.4593 5.09443 23.2335C4.97017 22.9468 4.95411 22.6247 5.04922 22.3269C5.1241 22.0925 5.30235 21.8747 5.65884 21.4389C6.33362 20.6142 6.671 20.2019 6.71978 19.8393C6.78165 19.3794 6.59203 18.9216 6.22307 18.6401C5.9322 18.4182 5.40206 18.3652 4.34177 18.2592C3.78161 18.2032 3.50154 18.1752 3.28283 18.0624C3.00506 17.9191 2.78865 17.68 2.67373 17.3893C2.58325 17.1605 2.58325 16.879 2.58325 16.316V14.6841C2.58325 14.121 2.58325 13.8395 2.67378 13.6106C2.78869 13.32 3.00503 13.0809 3.28272 12.9377C3.50147 12.8248 3.78162 12.7968 4.34192 12.7408H4.34193H4.34193C5.4025 12.6347 5.93279 12.5817 6.22371 12.3597C6.59252 12.0783 6.78207 11.6207 6.72029 11.1609C6.67155 10.7982 6.33406 10.3857 5.65907 9.56069L5.65907 9.56068C5.30242 9.12478 5.1241 8.90683 5.04922 8.67232C4.95419 8.3747 4.97025 8.05274 5.09442 7.76606C5.19226 7.54016 5.39138 7.34105 5.7896 6.94282L6.94347 5.78895C7.34156 5.39086 7.5406 5.19182 7.76641 5.09398C8.05318 4.96973 8.37527 4.95366 8.67298 5.04876C8.9074 5.12365 9.1253 5.30193 9.56108 5.65848L9.56109 5.65848C10.3857 6.33318 10.798 6.67052 11.1605 6.71934C11.6205 6.78129 12.0785 6.59162 12.36 6.2225C12.5817 5.93168 12.6348 5.40168 12.7408 4.34169V4.34169C12.7968 3.78168 12.8247 3.50168 12.9375 3.28303C13.0808 3.00516 13.32 2.78868 13.6107 2.67376C13.8395 2.58333 14.1209 2.58333 14.6837 2.58333H16.316C16.8789 2.58333 17.1604 2.58333 17.3892 2.67381C17.6799 2.78873 17.919 3.00514 18.0623 3.28291ZM15.5 20.6667C18.3535 20.6667 20.6667 18.3535 20.6667 15.5C20.6667 12.6465 18.3535 10.3334 15.5 10.3334C12.6465 10.3334 10.3333 12.6465 10.3333 15.5C10.3333 18.3535 12.6465 20.6667 15.5 20.6667Z" fill="#FCFCFD"/>
</svg>
