<svg width="28" height="35" viewBox="0 0 28 35" fill="none" xmlns="http://www.w3.org/2000/svg">
<path fill-rule="evenodd" clip-rule="evenodd" d="M14.4727 0V10.1013L14.4727 10.1527C14.4726 10.5535 14.4725 10.943 14.5157 11.2643C14.5644 11.6265 14.6831 12.0398 15.0264 12.383C15.3696 12.7263 15.7829 12.845 16.1451 12.8937C16.4664 12.9369 16.8559 12.9368 17.2567 12.9367H17.2567L17.3081 12.9367H27.4093V23.9831C27.4093 28.8285 27.4093 31.2511 25.9041 32.7564C24.3988 34.2616 21.9761 34.2616 17.1308 34.2616H10.2785C5.43316 34.2616 3.0105 34.2616 1.50525 32.7564C0 31.2511 0 28.8285 0 23.9831V10.2785C0 5.43316 0 3.0105 1.50525 1.50525C3.0105 0 5.43316 0 10.2785 0H14.4727ZM16.363 0.000183364V10.1013C16.363 10.5735 16.365 10.8326 16.3892 11.0124L16.3901 11.0193L16.397 11.0202C16.5768 11.0444 16.8359 11.0464 17.3081 11.0464H27.4091C27.4073 9.87935 27.3861 9.24709 27.1485 8.67344C26.8877 8.04381 26.3926 7.54868 25.4023 6.55841L20.8509 2.007C19.8606 1.01673 19.3655 0.521602 18.7359 0.260801C18.1622 0.0231906 17.53 0.00206212 16.363 0.000183364ZM7.62029 18.8439C7.62029 18.3219 8.04344 17.8987 8.56543 17.8987H18.8439C19.3659 17.8987 19.7891 18.3219 19.7891 18.8439C19.7891 19.3659 19.3659 19.789 18.8439 19.789L8.56543 19.789C8.04344 19.789 7.62029 19.3659 7.62029 18.8439ZM8.56543 24.7511C8.04344 24.7511 7.62029 25.1742 7.62029 25.6962C7.62029 26.2182 8.04344 26.6414 8.56543 26.6414H15.4178C15.9398 26.6414 16.3629 26.2182 16.3629 25.6962C16.3629 25.1742 15.9398 24.7511 15.4178 24.7511H8.56543Z" fill="#EEEEFF"/>
</svg>
