<svg width="45" height="42" viewBox="0 0 45 42" fill="none" xmlns="http://www.w3.org/2000/svg">
<path d="M2.56445 37.1633L2.56445 8.13809C2.56445 5.78439 2.56445 4.60754 3.29565 3.87634C4.02685 3.14515 5.2037 3.14515 7.5574 3.14515L36.5715 3.14514C38.9252 3.14514 40.1021 3.14514 40.8333 3.87634C41.5645 4.60754 41.5645 5.78439 41.5645 8.13809L41.5645 37.1633C41.5645 37.9536 41.5645 38.3487 41.3053 38.5355C41.0461 38.7223 40.6712 38.5974 39.9215 38.3475L32.2092 35.7767C32.0135 35.7115 31.9157 35.6789 31.8145 35.6789C31.7132 35.6789 31.6154 35.7115 31.4197 35.7767L22.4592 38.7636C22.2635 38.8288 22.1657 38.8614 22.0645 38.8614C21.9632 38.8614 21.8654 38.8288 21.6697 38.7636L12.7092 35.7767C12.5135 35.7115 12.4157 35.6789 12.3145 35.6789C12.2132 35.6789 12.1154 35.7115 11.9197 35.7767L4.20742 38.3475C3.45769 38.5974 3.08283 38.7223 2.82364 38.5355C2.56445 38.3487 2.56445 37.9536 2.56445 37.1633Z" stroke="url(#paint0_linear_204_551)" stroke-width="4.99294"/>
<defs>
<linearGradient id="paint0_linear_204_551" x1="2.56445" y1="21.0201" x2="41.5645" y2="21.0201" gradientUnits="userSpaceOnUse">
<stop stop-color="#7065D2"/>
<stop offset="1" stop-color="#A54FCD"/>
</linearGradient>
</defs>
</svg>
