<svg width="36" height="34" viewBox="0 0 36 34" fill="none" xmlns="http://www.w3.org/2000/svg">
<path d="M2.5 29.8734L2.5 6.80209C2.5 4.9312 2.5 3.99576 3.08121 3.41455C3.66242 2.83334 4.59786 2.83334 6.46875 2.83334L29.5312 2.83333C31.4021 2.83333 32.3376 2.83333 32.9188 3.41455C33.5 3.99575 33.5 4.9312 33.5 6.80208L33.5 29.8734C33.5 30.5016 33.5 30.8157 33.294 30.9642C33.088 31.1126 32.79 31.0133 32.1941 30.8147L26.0638 28.7713C25.9083 28.7194 25.8305 28.6935 25.75 28.6935C25.6695 28.6935 25.5917 28.7194 25.4362 28.7713L18.3138 31.1454C18.1583 31.1972 18.0805 31.2232 18 31.2232C17.9195 31.2232 17.8417 31.1972 17.6862 31.1454L10.5638 28.7713C10.4083 28.7194 10.3305 28.6935 10.25 28.6935C10.1695 28.6935 10.0917 28.7194 9.93625 28.7713L9.93624 28.7713L3.80594 30.8147C3.21001 31.0133 2.91205 31.1126 2.70602 30.9642C2.5 30.8157 2.5 30.5016 2.5 29.8734Z" stroke="url(#paint0_linear_197_515)" stroke-width="3.96875"/>
<defs>
<linearGradient id="paint0_linear_197_515" x1="2.5" y1="17.0417" x2="33.5" y2="17.0417" gradientUnits="userSpaceOnUse">
<stop stop-color="#7065D2"/>
<stop offset="1" stop-color="#A54FCD"/>
</linearGradient>
</defs>
</svg>
