<svg width="38" height="38" viewBox="0 0 43 43" fill="none" xmlns="http://www.w3.org/2000/svg">
<path d="M19.0536 23.8004H16.4169C14.3955 23.8004 12.7607 22.1129 12.7607 20.0211C12.7607 19.3005 13.3584 18.7028 14.0791 18.7028C14.7998 18.7028 15.3974 19.3005 15.3974 20.0211C15.3974 20.6539 15.8544 21.1637 16.4169 21.1637H19.0536C19.4579 21.1637 19.7743 20.7946 19.7743 20.3375C19.7743 19.7223 19.6688 19.6872 19.2645 19.5465L15.0283 18.07C13.499 17.5427 12.7432 16.4704 12.7432 14.8005C12.7432 12.9021 14.2549 11.3377 16.1005 11.3377H18.7372C20.7586 11.3377 22.3934 13.0252 22.3934 15.1169C22.3934 15.8376 21.7957 16.4353 21.075 16.4353C20.3544 16.4353 19.7567 15.8376 19.7567 15.1169C19.7567 14.4841 19.2997 13.9744 18.7372 13.9744H16.1005C15.6962 13.9744 15.3798 14.3435 15.3798 14.8005C15.3798 15.4158 15.4853 15.4509 15.8896 15.5915L20.1258 17.0681C21.6551 17.613 22.3934 18.6852 22.3934 20.3375C22.411 22.2535 20.8993 23.8004 19.0536 23.8004Z" fill="url(#paint0_linear_313_895)"/>
<path d="M17.5781 25.2066C16.8574 25.2066 16.2598 24.6089 16.2598 23.8883V22.5875C16.2598 21.8668 16.8574 21.2692 17.5781 21.2692C18.2988 21.2692 18.8964 21.8668 18.8964 22.5875V23.8883C18.8964 24.6265 18.2988 25.2066 17.5781 25.2066Z" fill="url(#paint1_linear_313_895)"/>
<path d="M17.5781 13.9568C16.8574 13.9568 16.2598 13.3591 16.2598 12.6384V11.2674C16.2598 10.5467 16.8574 9.94904 17.5781 9.94904C18.2988 9.94904 18.8964 10.5467 18.8964 11.2674V12.6384C18.8964 13.3591 18.2988 13.9568 17.5781 13.9568Z" fill="url(#paint2_linear_313_895)"/>
<path d="M17.5593 32.9056C9.08679 32.9056 2.19629 26.0151 2.19629 17.5426C2.19629 9.07013 9.08679 2.17963 17.5593 2.17963C26.0318 2.17963 32.9223 9.07013 32.9223 17.5426C32.9223 26.0151 26.0142 32.9056 17.5593 32.9056ZM17.5593 4.83388C10.5457 4.83388 4.83296 10.5467 4.83296 17.5602C4.83296 24.5738 10.5457 30.269 17.5593 30.269C24.5728 30.269 30.2856 24.5562 30.2856 17.5426C30.2856 10.5291 24.5728 4.83388 17.5593 4.83388Z" fill="url(#paint3_linear_313_895)"/>
<path d="M29.9169 39.9368C26.665 39.9368 23.6064 38.3548 21.7256 35.683C21.3037 35.0853 21.4444 34.2592 22.042 33.8373C22.6396 33.4154 23.4658 33.556 23.8877 34.1537C25.2763 36.1224 27.5263 37.2825 29.9169 37.2825C33.9949 37.2825 37.2995 33.9779 37.2995 29.8999C37.2995 27.5269 36.1394 25.2769 34.2058 23.8883C33.6082 23.4664 33.4852 22.6402 33.907 22.0426C34.3289 21.4449 35.155 21.3219 35.7527 21.7438C38.3718 23.6246 39.9362 26.6655 39.9362 29.8999C39.9362 35.4545 35.4539 39.9368 29.9169 39.9368Z" fill="url(#paint4_linear_313_895)"/>
<defs>
<linearGradient id="paint0_linear_313_895" x1="17.5683" y1="11.3377" x2="17.5683" y2="23.8004" gradientUnits="userSpaceOnUse">
<stop stop-color="#7065D2"/>
<stop offset="1" stop-color="#9747FF"/>
</linearGradient>
<linearGradient id="paint1_linear_313_895" x1="17.5781" y1="21.2692" x2="17.5781" y2="25.2066" gradientUnits="userSpaceOnUse">
<stop stop-color="#7065D2"/>
<stop offset="1" stop-color="#9747FF"/>
</linearGradient>
<linearGradient id="paint2_linear_313_895" x1="17.5781" y1="9.94904" x2="17.5781" y2="13.9568" gradientUnits="userSpaceOnUse">
<stop stop-color="#7065D2"/>
<stop offset="1" stop-color="#9747FF"/>
</linearGradient>
<linearGradient id="paint3_linear_313_895" x1="17.5593" y1="2.17963" x2="17.5593" y2="32.9056" gradientUnits="userSpaceOnUse">
<stop stop-color="#7065D2"/>
<stop offset="1" stop-color="#9747FF"/>
</linearGradient>
<linearGradient id="paint4_linear_313_895" x1="30.7093" y1="21.4946" x2="30.7093" y2="39.9368" gradientUnits="userSpaceOnUse">
<stop stop-color="#7065D2"/>
<stop offset="1" stop-color="#9747FF"/>
</linearGradient>
</defs>
</svg>
