<svg width="61" height="61" viewBox="0 0 71 71" fill="none" xmlns="http://www.w3.org/2000/svg">
<path d="M35.4743 41.3866L33.3839 43.4769L35.4743 45.5673L37.5646 43.4769L35.4743 41.3866ZM38.4305 14.7809C38.4305 13.1483 37.1069 11.8247 35.4743 11.8247C33.8416 11.8247 32.5181 13.1483 32.5181 14.7809L38.4305 14.7809ZM18.603 28.696L33.3839 43.4769L37.5646 39.2963L22.7837 24.5153L18.603 28.696ZM37.5646 43.4769L52.3456 28.696L48.1649 24.5153L33.3839 39.2963L37.5646 43.4769ZM38.4305 41.3866L38.4305 14.7809L32.5181 14.7809L32.5181 41.3866L38.4305 41.3866Z" fill="url(#paint0_linear_1012_1303)"/>
<path d="M14.7808 47.299L14.7808 50.2551C14.7808 53.5204 17.4278 56.1675 20.6931 56.1675L50.255 56.1675C53.5203 56.1675 56.1674 53.5205 56.1674 50.2551V47.299" stroke="url(#paint1_linear_1012_1303)" stroke-width="5.91237"/>
<defs>
<linearGradient id="paint0_linear_1012_1303" x1="20.6934" y1="28.0838" x2="50.2552" y2="28.0838" gradientUnits="userSpaceOnUse">
<stop stop-color="#7065D2"/>
<stop offset="1" stop-color="#7065D2"/>
</linearGradient>
<linearGradient id="paint1_linear_1012_1303" x1="35.4741" y1="47.299" x2="35.4741" y2="56.1675" gradientUnits="userSpaceOnUse">
<stop stop-color="#7065D2"/>
<stop offset="1" stop-color="#7065D2"/>
</linearGradient>
</defs>
</svg>
