<svg width="39" height="39" viewBox="0 0 39 39" fill="none" xmlns="http://www.w3.org/2000/svg">
<path fill-rule="evenodd" clip-rule="evenodd" d="M20.9631 11.5367L24.7963 7.70343C26.1297 6.3701 26.7963 5.70343 27.6248 5.70343C28.4532 5.70343 29.1199 6.3701 30.4532 7.70343L31.2963 8.54657C32.6297 9.87991 33.2963 10.5466 33.2963 11.375C33.2963 12.2034 32.6297 12.8701 31.2964 14.2034L31.2963 14.2034L27.4985 18.0013C24.7986 16.4322 22.5516 14.2021 20.9631 11.5367ZM19.5088 12.991L7.35615 25.1436C6.93109 25.5687 6.71856 25.7812 6.57883 26.0423C6.43909 26.3034 6.38015 26.5981 6.26226 27.1876L5.02186 33.3896C4.95534 33.7222 4.92208 33.8885 5.01668 33.9831C5.11129 34.0777 5.2776 34.0444 5.61021 33.9779L11.8122 32.7375C12.4016 32.6196 12.6964 32.5607 12.9575 32.4209C13.2186 32.2812 13.4311 32.0687 13.8562 31.6436L26.0405 19.4593C23.3914 17.8261 21.1587 15.6091 19.5088 12.991Z" fill="#7065D2"/>
</svg>
