<svg width="55" height="54" viewBox="0 0 62 62" fill="none" xmlns="http://www.w3.org/2000/svg">
<g opacity="1">
<path d="M33.7123 41.9789H28.8557C25.4199 41.9789 22.604 39.0856 22.604 35.5206C22.604 34.4614 23.4823 33.5831 24.5415 33.5831C25.6007 33.5831 26.479 34.4614 26.479 35.5206C26.479 36.9414 27.5382 38.1039 28.8557 38.1039H33.7123C34.7198 38.1039 35.5207 37.1997 35.5207 36.0889C35.5207 34.6939 35.1332 34.4872 34.2549 34.1772L26.479 31.4647C24.8257 30.8706 22.604 29.6822 22.604 25.8847C22.604 22.6556 25.1615 19.9948 28.2874 19.9948H33.144C36.5798 19.9948 39.3957 22.8881 39.3957 26.4531C39.3957 27.5123 38.5173 28.3906 37.4582 28.3906C36.399 28.3906 35.5207 27.5123 35.5207 26.4531C35.5207 25.0323 34.4615 23.8698 33.144 23.8698H28.2874C27.2799 23.8698 26.479 24.7739 26.479 25.8847C26.479 27.2797 26.8665 27.4864 27.7448 27.7964L35.5207 30.5089C37.174 31.1031 39.3957 32.2914 39.3957 36.0889C39.3957 39.3439 36.8381 41.9789 33.7123 41.9789Z" fill="url(#paint0_linear_984_1260)"/>
<path d="M31.0002 44.5626C29.9411 44.5626 29.0627 43.6843 29.0627 42.6251V19.3751C29.0627 18.316 29.9411 17.4376 31.0002 17.4376C32.0594 17.4376 32.9377 18.316 32.9377 19.3751V42.6251C32.9377 43.6843 32.0594 44.5626 31.0002 44.5626Z" fill="url(#paint1_linear_984_1260)"/>
<path d="M31.0003 58.7707C15.6812 58.7707 3.22949 46.319 3.22949 30.9998C3.22949 15.6807 15.6812 3.229 31.0003 3.229C32.0595 3.229 32.9378 4.10734 32.9378 5.1665C32.9378 6.22567 32.0595 7.104 31.0003 7.104C17.8253 7.104 7.10449 17.8248 7.10449 30.9998C7.10449 44.1748 17.8253 54.8957 31.0003 54.8957C44.1753 54.8957 54.8962 44.1748 54.8962 30.9998C54.8962 29.9407 55.7745 29.0623 56.8337 29.0623C57.8928 29.0623 58.7712 29.9407 58.7712 30.9998C58.7712 46.319 46.3195 58.7707 31.0003 58.7707Z" fill="url(#paint2_linear_984_1260)"/>
<path d="M56.8333 17.4373C55.7742 17.4373 54.8958 16.559 54.8958 15.4998V7.104H46.5C45.4408 7.104 44.5625 6.22567 44.5625 5.1665C44.5625 4.10734 45.4408 3.229 46.5 3.229H56.8333C57.8925 3.229 58.7708 4.10734 58.7708 5.1665V15.4998C58.7708 16.559 57.8925 17.4373 56.8333 17.4373Z" fill="url(#paint3_linear_984_1260)"/>
<path d="M43.9169 20.0209C43.426 20.0209 42.9352 19.8401 42.5477 19.4526C41.7985 18.7034 41.7985 17.4634 42.5477 16.7143L55.4644 3.79759C56.2135 3.04843 57.4535 3.04843 58.2027 3.79759C58.9519 4.54676 58.9519 5.78675 58.2027 6.53592L45.286 19.4526C44.8985 19.8401 44.4077 20.0209 43.9169 20.0209Z" fill="url(#paint4_linear_984_1260)"/>
</g>
<defs>
<linearGradient id="paint0_linear_984_1260" x1="30.9998" y1="19.9948" x2="30.9998" y2="41.9789" gradientUnits="userSpaceOnUse">
<stop stop-color="#7065D2"/>
<stop offset="1" stop-color="#7065D2"/>
</linearGradient>
<linearGradient id="paint1_linear_984_1260" x1="31.0002" y1="17.4376" x2="31.0002" y2="44.5626" gradientUnits="userSpaceOnUse">
<stop stop-color="#7065D2"/>
<stop offset="1" stop-color="#7065D2"/>
</linearGradient>
<linearGradient id="paint2_linear_984_1260" x1="31.0003" y1="3.229" x2="31.0003" y2="58.7707" gradientUnits="userSpaceOnUse">
<stop stop-color="#7065D2"/>
<stop offset="1" stop-color="#7065D2"/>
</linearGradient>
<linearGradient id="paint3_linear_984_1260" x1="51.6667" y1="3.229" x2="51.6667" y2="17.4373" gradientUnits="userSpaceOnUse">
<stop stop-color="#7065D2"/>
<stop offset="1" stop-color="#7065D2"/>
</linearGradient>
<linearGradient id="paint4_linear_984_1260" x1="50.3752" y1="3.23572" x2="50.3752" y2="20.0209" gradientUnits="userSpaceOnUse">
<stop stop-color="#7065D2"/>
<stop offset="1" stop-color="#7065D2"/>
</linearGradient>
</defs>
</svg>
