<svg width="38" height="38" viewBox="0 0 38 38" fill="none" xmlns="http://www.w3.org/2000/svg">
<path d="M25.333 33.25V30.0833C25.333 27.0978 25.333 25.605 24.4055 24.6775C23.478 23.75 21.9852 23.75 18.9997 23.75H17.4163C14.4308 23.75 12.938 23.75 12.0105 24.6775C11.083 25.605 11.083 27.0978 11.083 30.0833V33.25" stroke="#EF4F4F" stroke-width="3.16667"/>
<path d="M11.083 12.6667H18.9997" stroke="#EF4F4F" stroke-width="3.16667" stroke-linecap="round"/>
<path d="M4.75 14.25C4.75 9.77166 4.75 7.53249 6.14124 6.14124C7.53249 4.75 9.77166 4.75 14.25 4.75H25.605C26.2522 4.75 26.5758 4.75 26.8667 4.87052C27.1577 4.99105 27.3865 5.21986 27.8442 5.6775L32.3225 10.1558C32.7801 10.6135 33.009 10.8423 33.1295 11.1333C33.25 11.4242 33.25 11.7478 33.25 12.395V23.75C33.25 28.2283 33.25 30.4675 31.8588 31.8588C30.4675 33.25 28.2283 33.25 23.75 33.25H14.25C9.77166 33.25 7.53249 33.25 6.14124 31.8588C4.75 30.4675 4.75 28.2283 4.75 23.75V14.25Z" stroke="#EF4F4F" stroke-width="3.16667"/>
</svg>
