<svg width="41" height="41" viewBox="0 0 41 41" fill="none" xmlns="http://www.w3.org/2000/svg">
<path fill-rule="evenodd" clip-rule="evenodd" d="M4.2034 5.88354C3.35986 6.72707 3.35986 8.08472 3.35986 10.8V29.52C3.35986 32.2353 3.35986 33.593 4.2034 34.4365C5.04693 35.28 6.40457 35.28 9.11986 35.28H31.1999C33.9152 35.28 35.2728 35.28 36.1163 34.4365C36.9599 33.593 36.9599 32.2353 36.9599 29.52V10.8C36.9599 8.08472 36.9599 6.72707 36.1163 5.88354C35.2728 5.04001 33.9152 5.04001 31.1999 5.04001H9.11987C6.40457 5.04001 5.04693 5.04001 4.2034 5.88354ZM26.8803 14.16C27.4105 14.16 27.8403 14.5898 27.8403 15.12V28.56C27.8403 29.0902 27.4105 29.52 26.8803 29.52C26.3501 29.52 25.9203 29.0902 25.9203 28.56V15.12C25.9203 14.5898 26.3501 14.16 26.8803 14.16ZM14.4 18.48C14.4 17.9498 13.9702 17.52 13.44 17.52C12.9098 17.52 12.48 17.9498 12.48 18.48V28.56C12.48 29.0902 12.9098 29.52 13.44 29.52C13.9702 29.52 14.4 29.0902 14.4 28.56V18.48ZM21.1201 21.84C21.1201 21.3098 20.6903 20.88 20.1601 20.88C19.63 20.88 19.2001 21.3098 19.2001 21.84V28.56C19.2001 29.0902 19.63 29.52 20.1601 29.52C20.6903 29.52 21.1201 29.0902 21.1201 28.56V21.84Z" fill="#7065D2"/>
</svg>
